<svg version="1.1" id="Layer_1" xmlns="http://www.w3.org/2000/svg" xmlns:xlink="http://www.w3.org/1999/xlink" x="0px" y="0px"
	 width="100%" viewBox="0 0 500 485" enable-background="new 0 0 500 485" xml:space="preserve">
<path fill="#1851BA" opacity="1.000000" stroke="none" 
	d="
M1.000000,98.000000 
	C1.000000,95.629356 1.000000,93.258705 1.251514,90.182083 
	C4.846098,83.909111 4.731378,81.748016 1.000000,80.000000 
	C1.000000,78.611107 1.000000,77.222221 1.359779,75.335419 
	C2.435336,73.935966 3.151113,73.034424 3.866890,72.132889 
	C2.911260,71.421928 1.955630,70.710960 1.000000,70.000000 
	C1.000000,68.933327 1.000000,67.866646 1.372868,66.314827 
	C5.148174,62.980610 4.916161,60.855762 1.000000,59.000000 
	C1.000000,56.299950 1.000000,53.599899 1.252068,50.536568 
	C6.041210,50.236050 3.014205,46.651253 4.001553,44.564651 
	C4.522516,40.717484 5.005072,37.300560 5.570322,33.897373 
	C5.963243,31.531723 6.469816,29.184948 6.961987,26.563160 
	C7.271180,25.854120 7.544000,25.411663 8.052010,24.786316 
	C8.519560,24.067432 8.751922,23.531439 9.191650,22.798986 
	C9.601016,22.076015 9.803016,21.549500 10.085522,20.803905 
	C10.307969,20.290993 10.528529,20.078928 11.162793,19.878878 
	C12.000559,18.878897 12.503236,17.948668 13.001343,17.008774 
	C12.996773,16.999111 13.016964,17.004677 13.324310,16.913754 
	C14.069356,16.149435 14.507056,15.476039 15.025272,14.612263 
	C15.269336,14.182806 15.491640,14.028235 16.008801,13.824751 
	C16.494848,13.432593 16.744793,13.173856 16.992830,12.954810 
	C16.990921,12.994503 16.911568,12.990058 17.120600,12.841271 
	C17.549793,12.432244 17.769953,12.172004 17.990051,11.951168 
	C17.989990,11.990573 17.911186,11.989602 18.121279,11.841185 
	C18.550377,11.430449 18.769382,11.168132 18.967415,10.942122 
	C18.946444,10.978428 18.874908,10.934669 19.237520,10.896418 
	C26.733421,7.572111 33.866711,4.286055 41.000000,1.000000 
	C182.022644,1.000000 323.045288,1.000000 464.805847,1.234606 
	C470.436493,3.234017 475.329285,4.998823 480.209351,6.849464 
	C480.196655,6.935302 480.024414,6.914014 480.230804,7.132542 
	C480.994843,7.546446 481.552521,7.741822 482.071228,7.943131 
	C482.032318,7.949064 482.024109,7.870744 482.177917,8.164542 
	C483.263153,8.949580 484.194550,9.440821 485.089966,9.956447 
	C485.053955,9.980833 485.006683,9.907794 485.174255,10.122461 
	C485.638306,10.543682 485.934784,10.750235 486.415588,11.035660 
	C486.831024,11.275106 486.977997,11.492542 487.194397,12.008730 
	C487.645203,12.486912 487.942535,12.723202 488.518555,13.111145 
	C490.199402,14.850337 491.601532,16.437876 493.060547,18.311081 
	C493.445160,19.063511 493.772888,19.530279 494.066162,19.981834 
	C494.031708,19.966621 494.064484,19.898832 494.063538,20.283081 
	C496.375092,26.111553 498.687531,31.555777 501.000000,37.000000 
	C501.000000,37.750000 501.000000,38.500000 500.829376,39.795425 
	C500.772491,40.893906 500.886230,41.446953 501.000000,42.000000 
	C501.000000,175.355972 501.000000,308.711945 500.767273,442.853882 
	C499.378235,448.520172 498.332916,453.430573 497.024536,458.269806 
	C496.223907,461.231049 495.019409,464.083038 493.863678,467.294067 
	C489.206299,474.560944 482.923065,479.442413 475.614197,483.189240 
	C474.543793,483.737976 473.861725,485.044220 473.000000,486.000000 
	C329.310699,486.000000 185.621384,486.000000 41.188412,485.773682 
	C35.201065,483.728058 29.957390,481.908752 24.454311,480.063263 
	C23.773827,479.765076 23.352743,479.493073 22.902122,478.946045 
	C22.244278,478.453613 21.615969,478.236176 20.744305,477.919800 
	C20.044155,477.299377 19.587358,476.777863 19.019669,475.917236 
	C18.189503,475.074097 17.470230,474.570129 16.562693,474.000610 
	C16.135515,473.780853 15.994532,473.563202 15.787334,473.033905 
	C15.311519,472.544189 14.999848,472.302673 14.449306,471.944641 
	C13.794176,471.266693 13.377918,470.705231 12.945503,469.779663 
	C12.197680,468.635376 11.466013,467.855164 10.539365,466.968231 
	C10.123389,466.642120 10.002822,466.377045 9.928377,465.768616 
	C9.544035,464.979370 9.213996,464.487793 8.928251,464.011505 
	C8.972545,464.026764 8.939896,464.114594 8.899169,463.809937 
	C8.533381,463.001740 8.208319,462.498169 7.926109,462.011139 
	C7.968961,462.027679 7.933587,462.112488 7.931293,461.714478 
	C6.556085,453.868530 4.753397,446.466736 3.947930,438.957916 
	C3.317704,433.082733 3.941946,427.075043 3.971081,421.126038 
	C3.982145,418.866943 4.567690,416.211975 1.000000,416.000000 
	C1.000000,415.555542 1.000000,415.111115 1.368153,414.250793 
	C5.038014,411.103058 4.876603,409.823944 1.000000,408.000000 
	C1.000000,405.629364 1.000000,403.258698 1.387578,400.354675 
	C4.605041,397.348450 5.061780,388.588440 2.434067,386.328796 
	C2.105074,386.045868 1.485134,386.101318 1.000001,386.000000 
	C1.000000,385.250000 1.000000,384.500000 1.316272,383.301910 
	C2.244013,382.459320 2.855481,382.064850 3.466954,381.670349 
	C2.644641,380.780212 1.822325,379.890106 1.000005,379.000000 
	C1.000000,378.250000 1.000000,377.500000 1.300205,376.302307 
	C2.130353,375.623932 2.660297,375.393188 3.190239,375.162445 
	C2.460160,374.774963 1.730081,374.387482 1.000002,374.000000 
	C1.000000,372.933319 1.000000,371.866669 1.350830,370.321899 
	C4.522473,367.509125 4.086228,361.388885 1.000000,360.000000 
	C1.000000,359.555542 1.000000,359.111115 1.300201,358.260864 
	C5.050026,355.067932 4.837953,352.646576 1.000000,351.000000 
	C1.000000,350.250000 1.000000,349.500000 1.326484,348.302368 
	C5.476867,345.184814 4.165900,343.004059 1.000000,341.000000 
	C1.000000,340.250000 1.000000,339.500000 1.359083,338.294189 
	C2.445990,337.124573 3.771963,336.436737 3.804215,335.692810 
	C4.008021,330.991669 4.078857,326.269165 3.803751,321.576538 
	C3.750374,320.666046 1.978938,319.856232 0.999999,319.000000 
	C1.000000,318.250000 1.000000,317.500000 1.349688,316.296021 
	C2.388944,315.186371 3.078513,314.530640 3.768078,313.874939 
	C2.845381,313.249969 1.922688,312.625000 0.999997,312.000000 
	C1.000000,311.555542 1.000000,311.111115 1.321121,310.259796 
	C5.025313,307.171906 4.735096,303.623291 1.000000,302.000000 
	C1.000000,301.250000 1.000000,300.500000 1.333435,299.299744 
	C2.301045,298.448944 2.935221,298.048370 3.569395,297.647797 
	C2.712928,297.098541 1.856464,296.549255 1.000000,296.000000 
	C1.000000,295.555542 1.000000,295.111115 1.359789,294.252075 
	C2.435405,292.935913 3.151231,292.034302 3.867052,291.132690 
	C2.911366,290.421783 1.955683,289.710907 1.000000,289.000000 
	C1.000000,288.555542 1.000000,288.111115 1.314589,287.260529 
	C2.284004,286.131897 3.491653,285.423126 3.509991,284.684814 
	C3.750453,275.003296 3.900016,265.316895 3.808374,255.634216 
	C3.799980,254.747360 1.979187,253.877670 0.999999,253.000000 
	C1.000000,251.933319 1.000000,250.866653 1.384110,249.311554 
	C4.423623,246.525024 4.897145,237.629028 2.436023,235.270157 
	C2.141546,234.987915 1.487421,235.080917 1.000001,235.000000 
	C1.000000,233.611115 1.000000,232.222214 1.367662,230.332962 
	C5.034207,227.104782 4.872543,225.822464 1.000000,224.000000 
	C1.000000,222.285583 1.000000,220.571152 1.245914,218.510254 
	C2.211370,217.895065 2.930912,217.626358 3.650453,217.357651 
	C2.766968,216.571762 1.883485,215.785889 1.000000,215.000000 
	C1.000000,213.933319 1.000000,212.866653 1.311535,211.327545 
	C4.914417,208.285538 4.528340,201.559280 1.000000,200.000000 
	C1.000000,198.933319 1.000000,197.866653 1.386896,196.310806 
	C5.422189,192.639008 4.955978,184.913940 1.000000,183.000000 
	C1.000000,181.933319 1.000000,180.866653 1.367140,179.317978 
	C5.185550,176.045486 4.748310,166.020203 1.000000,162.000000 
	C1.000000,161.250000 1.000000,160.500000 1.325061,159.301010 
	C2.296594,158.278381 3.498521,157.711502 3.505597,157.130081 
	C3.600417,149.338058 3.583442,141.542633 3.390249,133.753113 
	C3.375275,133.149353 1.832612,132.583481 0.999999,132.000000 
	C1.000000,129.958328 1.000000,127.916664 1.326575,125.311279 
	C4.935730,121.818977 4.662332,117.320221 1.000000,114.000000 
	C1.000000,111.958336 1.000000,109.916664 1.356448,107.357452 
	C4.570930,104.495773 4.175494,99.592377 1.000000,98.000000 
M189.260590,155.373581 
	C189.260590,155.373581 189.438522,155.204788 188.899048,155.456161 
	C188.609100,155.724503 188.319168,155.992844 188.067917,156.097519 
	C188.067917,156.097519 188.229736,156.143311 187.570908,156.212692 
	C187.133911,156.667648 186.696915,157.122604 186.285309,157.421036 
	C186.285309,157.421036 186.433807,157.476730 185.710068,157.322174 
	C184.862839,158.016922 184.015610,158.711670 183.163437,159.246506 
	C183.163437,159.246506 183.322891,159.259598 182.606293,159.205109 
	C181.794052,159.938705 180.981812,160.672318 180.163681,161.246994 
	C180.163681,161.246994 180.322235,161.259125 179.607025,161.204514 
	C178.791504,161.932434 177.975967,162.660339 177.160675,163.235916 
	C177.160675,163.235916 177.311981,163.253647 176.539444,163.127045 
	C174.750031,164.552399 172.960617,165.977753 171.164581,167.243301 
	C171.164581,167.243301 171.324142,167.254532 170.644852,167.255753 
	C170.182709,167.699127 169.720551,168.142502 169.289627,168.410172 
	C169.289627,168.410172 169.457291,168.471283 168.821365,168.385239 
	C168.486954,168.803970 168.152542,169.222702 167.607727,169.744568 
	C167.607727,169.744568 167.474319,169.551926 166.946854,169.697433 
	C166.734390,169.988266 166.521927,170.279099 166.101776,170.321259 
	C166.101776,170.321259 166.355698,170.119980 165.870285,170.442368 
	C165.608887,170.727402 165.347504,171.012436 164.907440,171.735825 
	C164.661713,171.975372 164.369720,172.066315 163.454681,172.171692 
	C162.972397,172.501083 162.490112,172.830475 162.030914,173.043350 
	C162.030914,173.043350 162.146744,173.069656 161.512772,173.197540 
	C161.097015,173.655914 160.681244,174.114273 160.164536,174.299301 
	C160.164536,174.299301 160.443405,174.214859 159.904297,174.448837 
	C159.616882,174.710449 159.329468,174.972061 159.071030,175.088425 
	C159.071030,175.088425 159.214767,175.124176 158.563507,175.208496 
	C158.070160,175.608505 157.576813,176.008514 157.068436,176.112137 
	C157.068436,176.112137 157.365112,176.104935 156.853638,176.391022 
	C156.585236,176.670380 156.316833,176.949738 156.074753,177.089096 
	C156.074753,177.089096 156.213272,177.122391 155.563065,177.210083 
	C155.069565,177.609222 154.576065,178.008362 154.123199,178.204437 
	C154.123199,178.204437 154.322861,178.259476 153.606522,178.205490 
	C152.794037,178.938950 151.981567,179.672409 151.164062,180.246521 
	C151.164062,180.246521 151.322968,180.259521 150.606628,180.205551 
	C149.794113,180.938980 148.981598,181.672409 148.115723,182.162079 
	C148.115723,182.162079 148.361710,182.120010 147.853760,182.362762 
	C147.580048,182.612717 147.306335,182.862671 147.045532,183.041275 
	C147.045532,183.041275 147.116058,183.058090 146.494629,183.190887 
	C146.026443,183.591919 145.558258,183.992950 145.123428,184.196091 
	C145.123428,184.196091 145.318451,184.243469 144.602768,184.211777 
	C143.788742,184.937225 142.974716,185.662689 142.156601,186.224167 
	C142.156601,186.224167 142.320129,186.236771 141.643539,186.261826 
	C141.180481,186.702103 140.717407,187.142365 140.146057,187.296402 
	C140.146057,187.296402 140.437561,187.203339 139.898636,187.455734 
	C139.608826,187.724213 139.319031,187.992691 139.069733,188.099289 
	C139.069733,188.099289 139.229645,188.147003 138.633987,188.168564 
	C138.107986,188.672241 137.581985,189.175919 136.411316,190.043381 
	C131.018631,194.339554 125.625946,198.635727 119.746490,203.380600 
	C119.552696,203.996445 119.358902,204.612289 119.134453,205.079376 
	C119.134453,205.079376 119.284843,205.058197 118.784904,205.426559 
	C118.530075,205.976776 118.275253,206.526993 117.989189,207.580124 
	C117.903831,207.724792 117.818474,207.869446 117.102295,208.253769 
	C111.805962,213.918320 112.390541,221.359100 112.202751,228.037674 
	C111.627617,248.492477 111.948479,268.973969 112.076920,289.444061 
	C112.086464,290.965454 113.335472,292.479095 113.999084,294.000000 
	C113.999084,294.000000 114.004456,293.989960 114.165588,294.517456 
	C115.060341,294.315094 115.955093,294.112732 117.203491,293.314667 
	C120.800209,291.300537 124.549591,289.514587 127.965088,287.229584 
	C138.315155,280.305298 148.453293,273.062897 158.835190,266.187866 
	C166.154984,261.340637 173.861694,257.076996 181.172699,252.217361 
	C191.626999,245.268341 201.793335,237.886414 212.240417,230.926178 
	C221.488602,224.764694 230.952438,218.926865 240.822632,212.784958 
	C241.191666,212.432526 241.560715,212.080093 241.918579,211.876923 
	C241.918579,211.876923 241.770279,211.856689 242.429092,211.787369 
	C242.865997,211.332428 243.302902,210.877487 243.718811,210.585190 
	C243.718811,210.585190 243.563004,210.534012 244.312317,210.687622 
	C245.514053,209.737656 246.715805,208.787704 247.918442,207.914520 
	C247.918442,207.914520 247.841919,207.908127 248.557922,207.933472 
	C249.350937,207.247284 250.143967,206.561111 250.945358,205.947235 
	C250.945358,205.947235 250.874619,205.930115 251.622589,205.938019 
	C254.626297,203.768555 257.630035,201.599075 260.626862,199.537491 
	C260.626862,199.537491 260.527405,199.495132 261.203308,199.654770 
	C262.117126,198.876617 263.030975,198.098450 264.568024,196.928802 
	C265.169128,196.664627 265.825012,196.482712 266.363312,196.124207 
	C279.267517,187.529617 292.068939,178.776886 305.082001,170.350830 
	C315.196411,163.801636 325.714386,157.872360 335.780792,151.253616 
	C342.435577,146.878067 348.608612,141.769852 355.247559,137.111847 
	C355.536987,137.049164 355.622955,136.841721 355.688232,136.628098 
	C355.688232,136.628098 355.536682,136.800262 356.082092,136.514557 
	C356.365082,136.219086 356.648102,135.923615 356.944000,135.926605 
	C356.944000,135.926605 356.645355,135.933929 357.143524,135.577469 
	C357.404572,135.264938 357.665649,134.952408 357.855011,134.838379 
	C357.855011,134.838379 357.661194,134.754852 358.414337,134.764679 
	C359.112488,133.684082 359.810638,132.603485 360.602478,131.680862 
	C360.602478,131.680862 360.431519,131.747925 361.030762,131.485443 
	C361.330719,130.941910 361.630676,130.398361 361.938629,129.930374 
	C361.938629,129.930374 361.862671,129.932724 362.561737,129.792801 
	C362.990417,128.787170 363.419098,127.781532 363.861633,126.912865 
	C363.861633,126.912865 363.723999,126.916725 364.396606,126.636040 
	C364.890076,125.361412 365.383545,124.086792 365.895569,122.907669 
	C365.895569,122.907669 365.798767,122.917732 366.461700,122.633499 
	C367.665894,119.788452 369.729126,117.002228 369.928680,114.088387 
	C370.901245,99.883644 371.619202,85.649605 371.899323,71.415527 
	C372.002228,66.186264 370.965424,60.858482 369.814026,55.717751 
	C369.347290,53.633915 367.187195,51.929367 365.369720,49.944321 
	C365.093353,49.775208 364.953247,49.528660 364.591736,48.753445 
	C364.283752,48.523628 363.975739,48.293812 363.930054,48.157394 
	C363.930054,48.157394 363.829132,48.416893 363.556946,47.675041 
	C358.888824,44.584538 352.093109,46.251205 349.135468,51.135353 
	C349.135468,51.135353 349.211273,51.148140 348.457245,51.100929 
	C346.009674,52.831089 343.562103,54.561249 341.087372,56.101921 
	C341.087372,56.101921 341.277863,56.082886 340.795441,56.343079 
	C340.543304,56.602150 340.291168,56.861221 340.050415,57.048767 
	C340.050415,57.048767 340.120514,57.066967 339.502716,57.173409 
	C339.020416,57.544693 338.538147,57.915974 338.075775,58.130077 
	C338.075775,58.130077 338.231537,58.159180 337.582886,58.224304 
	C337.171478,58.677902 336.760071,59.131500 336.263092,59.368336 
	C336.263092,59.368336 336.487701,59.306202 335.927490,59.491711 
	C335.637726,59.751797 335.347961,60.011883 335.085999,60.124466 
	C335.085999,60.124466 335.231476,60.161442 334.632355,60.177589 
	C334.101379,60.684216 333.570404,61.190842 332.377197,62.037125 
	C322.254486,68.699326 312.131805,75.361534 301.759308,81.898392 
	C301.467407,81.953308 301.377930,82.158470 301.298920,82.401947 
	C301.298920,82.401947 301.421295,82.216476 300.889618,82.429169 
	C300.597076,82.669670 300.304535,82.910172 300.036011,83.042030 
	C300.036011,83.042030 300.143890,83.069336 299.509399,83.181244 
	C299.035706,83.589859 298.562012,83.998466 298.072723,84.120857 
	C298.072723,84.120857 298.359253,84.113655 297.847870,84.368935 
	C297.570618,84.625122 297.293335,84.881317 297.035278,85.040314 
	C297.035278,85.040314 297.131775,85.062775 296.500092,85.177841 
	C296.030090,85.587776 295.560059,85.997719 295.126709,86.208214 
	C295.126709,86.208214 295.322876,86.259544 294.606506,86.205360 
	C293.794067,86.938866 292.981659,87.672363 292.164093,88.246758 
	C292.164093,88.246758 292.322754,88.259644 291.607635,88.205055 
	C290.791870,88.932800 289.976105,89.660545 289.158203,90.228615 
	C289.158203,90.228615 289.317230,90.243484 288.609894,90.208847 
	C287.768707,90.897118 286.927521,91.585381 286.088257,92.131653 
	C286.088257,92.131653 286.229767,92.143265 285.570923,92.212837 
	C285.133545,92.667686 284.696167,93.122528 284.150818,93.296021 
	C284.150818,93.296021 284.437592,93.203438 283.898682,93.455772 
	C283.608826,93.724220 283.319000,93.992661 283.069611,94.099274 
	C283.069611,94.099274 283.229462,94.146873 282.633850,94.168381 
	C282.107941,94.672028 281.582031,95.175682 280.406342,96.043457 
	C276.414551,98.412971 272.303009,100.604759 268.459717,103.194626 
	C263.006653,106.869263 257.839172,110.967880 252.383636,114.638565 
	C247.938156,117.629662 243.249008,120.258614 238.065598,123.102303 
	C237.660599,123.605560 237.255600,124.108810 236.611343,124.742592 
	C236.611343,124.742592 236.449905,124.522972 235.934708,124.694275 
	C235.725418,124.985497 235.516129,125.276718 235.321228,125.425034 
	C235.321228,125.425034 235.457138,125.471535 234.821548,125.385101 
	C234.486771,125.803169 234.151978,126.221237 233.696518,126.879539 
	C233.696518,126.879539 233.428024,126.865967 232.751999,126.544434 
	C230.188385,128.403580 227.624771,130.262741 225.057755,132.049591 
	C225.057755,132.049591 225.127655,132.068405 224.395309,132.063248 
	C222.301956,133.368042 220.208603,134.672836 217.674255,136.313812 
	C217.488007,136.630386 217.301758,136.946960 217.116745,137.152710 
	C217.116745,137.152710 217.226807,137.165802 216.492279,137.110641 
	C215.712158,137.819534 214.932037,138.528427 214.146927,139.157944 
	C214.146927,139.157944 214.226028,139.166321 213.470764,139.097061 
	C211.672684,140.445526 209.874603,141.793991 208.072952,143.068466 
	C208.072952,143.068466 208.144684,143.086884 207.393433,143.069565 
	C203.402145,145.899780 199.410858,148.729996 195.310211,151.394852 
	C195.310211,151.394852 195.487961,151.307068 194.927567,151.492020 
	C194.637695,151.752014 194.347839,152.011993 194.084793,152.123383 
	C194.084793,152.123383 194.231491,152.159210 193.582901,152.224075 
	C193.171387,152.677567 192.759888,153.131042 192.306351,153.384735 
	C192.306351,153.384735 192.411179,153.559921 191.781601,153.362106 
	C191.180313,153.549194 190.579025,153.736298 189.635925,154.396149 
	C189.570816,154.777481 189.505707,155.158798 189.260590,155.373581 
M177.914749,382.695160 
	C177.914749,382.695160 178.183517,382.414520 178.183517,382.414520 
	C178.183517,382.414520 178.054871,382.009857 178.185394,381.339722 
	C181.636429,377.824432 184.872940,374.059998 188.592758,370.856873 
	C193.257645,366.839935 198.182327,363.086334 203.242935,359.576752 
	C209.913361,354.950745 216.822083,350.668091 223.633575,346.245850 
	C230.374847,341.869202 237.097443,337.463104 243.874664,333.142792 
	C250.318924,329.034698 256.823303,325.020874 263.860504,321.045929 
	C265.214478,319.982635 266.568451,318.919342 267.926453,317.930084 
	C267.926453,317.930084 267.854553,317.911957 268.612488,317.950409 
	C271.036926,316.202972 273.461334,314.455536 275.890808,312.836823 
	C275.890808,312.836823 275.762177,312.829956 276.498077,312.842682 
	C277.859589,311.707611 279.221130,310.572510 280.693726,309.605560 
	C280.693726,309.605560 280.513275,309.695282 281.073273,309.509094 
	C281.362946,309.248840 281.652618,308.988617 281.915466,308.877045 
	C281.915466,308.877045 281.768707,308.841187 282.417572,308.776062 
	C282.829865,308.322540 283.242188,307.869019 283.639099,307.513153 
	C283.639099,307.513153 283.565521,307.447113 284.208038,307.631012 
	C284.810913,307.424194 285.413757,307.217407 286.364197,306.569427 
	C286.428680,306.201874 286.493164,305.834290 286.727661,305.625977 
	C286.727661,305.625977 286.556488,305.783936 287.095398,305.551971 
	C287.382355,305.291046 287.669281,305.030090 287.928467,304.912262 
	C287.928467,304.912262 287.786865,304.877716 288.437256,304.790924 
	C288.931976,304.392883 289.426697,303.994843 289.876709,303.799713 
	C289.876709,303.799713 289.677460,303.740936 290.394379,303.795135 
	C291.206024,303.061310 292.017670,302.327484 292.836365,301.752319 
	C292.836365,301.752319 292.677917,301.741333 293.393280,301.795502 
	C294.208374,301.067413 295.023468,300.339325 295.841736,299.771362 
	C295.841736,299.771362 295.682159,299.757568 296.398682,299.788239 
	C297.210144,299.057373 298.021606,298.326508 298.837036,297.755371 
	C298.837036,297.755371 298.677856,297.741394 299.394318,297.795258 
	C300.206635,297.061676 301.018921,296.328064 301.851105,295.802979 
	C301.851105,295.802979 301.641693,295.807861 302.141052,295.677643 
	C302.424347,295.495178 302.707642,295.312744 303.673126,294.921600 
	C308.480133,291.620605 313.229462,288.231506 318.106018,285.036621 
	C328.882294,277.976501 340.601898,272.185699 349.287445,262.039093 
	C349.477112,261.618073 349.666779,261.197052 349.917999,260.938995 
	C349.917999,260.938995 349.752960,260.994720 350.188110,260.587311 
	C350.409729,260.259949 350.631348,259.932617 350.686615,259.864777 
	C350.686615,259.864777 350.433777,259.688416 351.162689,259.552856 
	C356.753571,253.532974 358.654907,245.984253 358.906891,238.207153 
	C359.325073,225.300400 359.106873,212.368881 358.928436,199.450958 
	C358.898743,197.300110 357.711792,195.165222 356.717407,192.381836 
	C353.340759,185.203415 348.910645,183.810333 341.778870,188.059662 
	C334.206726,192.571320 326.689911,197.193115 319.337830,202.052582 
	C308.843414,208.988953 298.593506,216.295425 288.094604,223.224838 
	C282.755341,226.748856 276.999908,229.638596 271.619354,233.104935 
	C267.286194,235.896545 263.372101,239.340759 259.027618,242.112228 
	C250.014145,247.862152 240.734085,253.196777 231.764801,259.012421 
	C225.494888,263.077820 219.688049,267.854797 213.440903,271.958527 
	C205.541565,277.147552 197.319565,281.844208 189.399261,287.002838 
	C183.564972,290.802795 178.284607,295.528931 172.233551,298.902863 
	C162.902710,304.105591 154.723160,310.187347 149.633194,320.034943 
	C149.496170,320.790405 149.359146,321.545837 149.130417,322.092346 
	C149.130417,322.092346 149.343079,322.009552 148.723892,322.474152 
	C147.829681,325.781219 146.183090,329.082794 146.159027,332.396179 
	C145.946381,361.684723 146.011200,390.975372 146.073456,420.265228 
	C146.074982,420.988007 146.991119,421.708801 147.860077,423.033173 
	C149.103714,423.337067 150.485641,424.152313 151.567917,423.859558 
	C157.405838,422.280640 160.959671,417.989014 164.226883,412.554291 
	C164.477066,412.014404 164.727234,411.474518 165.008484,410.983673 
	C165.008484,410.983673 164.950607,410.988403 165.566895,410.644440 
	C166.003662,409.367188 166.440430,408.089935 166.895065,406.907593 
	C166.895065,406.907593 166.798904,406.916962 167.457397,406.631317 
	C170.613129,399.041534 173.768860,391.451752 176.951340,383.962189 
	C176.951340,383.962189 176.850204,383.985260 177.283905,383.610962 
	C177.490799,383.289703 177.697693,382.968475 177.841187,382.865997 
	C177.841187,382.865997 177.626007,382.791321 177.914749,382.695160 
M3.464704,405.496124 
	C3.464704,405.496124 3.511141,405.477814 3.464704,405.496124 
M3.500596,402.468628 
	C3.500596,402.468628 3.519717,402.514679 3.500596,402.468628 
M3.529350,384.503723 
	C3.529350,384.503723 3.482864,384.521881 3.529350,384.503723 
M3.529333,371.503876 
	C3.529333,371.503876 3.482857,371.522034 3.529333,371.503876 
M3.529257,339.503815 
	C3.529257,339.503815 3.482778,339.521942 3.529257,339.503815 
M3.500684,90.468605 
	C3.500684,90.468605 3.519812,90.514694 3.500684,90.468605 
M3.493652,128.531372 
	C3.493652,128.531372 3.474265,128.485458 3.493652,128.531372 
M3.500692,110.468628 
	C3.500692,110.468628 3.519813,110.514732 3.500692,110.468628 
M3.500683,92.468620 
	C3.500683,92.468620 3.519805,92.514709 3.500683,92.468620 
M3.464598,78.495926 
	C3.464598,78.495926 3.510993,78.477577 3.464598,78.495926 
M3.493531,57.531311 
	C3.493531,57.531311 3.474127,57.485455 3.493531,57.531311 
M3.493529,55.531311 
	C3.493529,55.531311 3.474130,55.485451 3.493529,55.531311 
M3.529377,250.503815 
	C3.529377,250.503815 3.482882,250.521973 3.529377,250.503815 
M3.493643,232.531326 
	C3.493643,232.531326 3.474250,232.485428 3.493643,232.531326 
M3.464627,222.496094 
	C3.464627,222.496094 3.511029,222.477737 3.464627,222.496094 
M3.493597,213.531296 
	C3.493597,213.531296 3.474190,213.485428 3.493597,213.531296 
M3.493643,197.531418 
	C3.493643,197.531418 3.474248,197.485519 3.493643,197.531418 
M3.464612,53.496010 
	C3.464612,53.496010 3.511013,53.477669 3.464612,53.496010 
M3.529377,180.503845 
	C3.529377,180.503845 3.482880,180.522018 3.529377,180.503845 
M3.493690,160.531479 
	C3.493690,160.531479 3.474298,160.485565 3.493690,160.531479 
z"/>
<path fill="#0C1529" opacity="1.000000" stroke="none" 
	d="
M15.951485,473.282104 
	C15.994532,473.563202 16.135515,473.780853 16.734478,474.277954 
	C17.773199,475.166046 18.451872,475.711212 19.130554,476.256348 
	C19.587358,476.777863 20.044155,477.299377 20.912151,478.163269 
	C21.859457,478.744110 22.395557,478.982574 22.931660,479.221039 
	C23.352743,479.493073 23.773827,479.765076 24.650558,480.361206 
	C27.737474,482.456848 30.368742,484.228424 33.000008,486.000000 
	C22.397675,486.000000 11.795348,486.000000 1.000000,486.000000 
	C1.000000,472.646393 1.000000,459.291840 1.393579,445.343262 
	C2.166988,445.773102 2.561787,446.791687 2.924079,447.821777 
	C4.598858,452.583618 6.264597,457.348602 7.933580,462.112488 
	C7.933587,462.112488 7.968961,462.027679 7.970053,462.319153 
	C8.294062,463.111938 8.616978,463.613281 8.939896,464.114594 
	C8.939896,464.114594 8.972545,464.026764 8.977913,464.313232 
	C9.316413,465.088593 9.649544,465.577423 9.982677,466.066284 
	C10.002822,466.377045 10.123389,466.642120 10.653607,467.269470 
	C11.629108,468.499542 12.295385,469.321655 12.961661,470.143768 
	C13.377918,470.705231 13.794176,471.266693 14.612696,472.193848 
	C15.327135,472.800385 15.639312,473.041229 15.951485,473.282104 
z"/>
<path fill="#0D1D3D" opacity="1.000000" stroke="none" 
	d="
M15.772700,13.958171 
	C15.491640,14.028235 15.269336,14.182806 14.770977,14.769268 
	C13.963099,15.745996 13.490031,16.375336 13.016964,17.004677 
	C13.016964,17.004677 12.996773,16.999111 12.740568,17.179504 
	C11.932144,18.222809 11.379925,19.085720 10.827705,19.948629 
	C10.528529,20.078928 10.307969,20.290993 9.872935,20.936527 
	C9.351291,21.531797 9.122738,21.775364 8.697196,22.046635 
	C8.409231,22.436222 8.318254,22.798109 8.179998,23.465918 
	C8.027419,24.170961 7.922119,24.570084 7.816819,24.969206 
	C7.544000,25.411663 7.271180,25.854120 6.753693,26.731342 
	C6.296936,27.453028 6.084847,27.739950 5.560275,28.127781 
	C4.865131,29.178583 4.482473,30.128473 4.068189,31.072784 
	C4.036563,31.067205 4.081133,31.020962 3.831017,31.267813 
	C2.720601,33.676441 1.860300,35.838223 1.000000,38.000000 
	C1.000000,25.744272 1.000000,13.488544 1.000000,1.000000 
	C11.686436,1.000000 22.374559,1.000000 33.401840,1.344705 
	C32.507889,2.127053 31.122551,2.337442 30.069035,3.043175 
	C26.277128,5.583311 22.597166,8.290560 18.874908,10.934669 
	C18.874908,10.934669 18.946444,10.978428 18.715347,11.040388 
	C18.293232,11.398101 18.102209,11.693851 17.911186,11.989602 
	C17.911186,11.989602 17.989990,11.990573 17.737436,12.047251 
	C17.293777,12.399304 17.102673,12.694681 16.911568,12.990058 
	C16.911568,12.990058 16.990921,12.994503 16.731623,13.051379 
	C16.239117,13.391561 16.005907,13.674866 15.772700,13.958171 
z"/>
<path fill="#0D1D3B" opacity="1.000000" stroke="none" 
	d="
M473.468628,486.000000 
	C473.861725,485.044220 474.543793,483.737976 475.614197,483.189240 
	C482.923065,479.442413 489.206299,474.560944 494.162659,467.120178 
	C496.729492,463.757538 498.864746,460.878784 501.000000,458.000000 
	C501.000000,467.259796 501.000000,476.519562 501.000000,486.000000 
	C491.980316,486.000000 482.958801,486.000000 473.468628,486.000000 
z"/>
<path fill="#0D1D3B" opacity="1.000000" stroke="none" 
	d="
M493.003662,18.025423 
	C491.601532,16.437876 490.199402,14.850337 488.367950,12.866266 
	C487.639404,12.235441 487.340149,12.001148 487.040894,11.766848 
	C486.977997,11.492542 486.831024,11.275106 486.269470,10.798216 
	C485.628235,10.290530 485.317444,10.099163 485.006683,9.907795 
	C485.006683,9.907794 485.053955,9.980833 484.987976,9.625872 
	C483.956024,8.804187 482.990082,8.337463 482.024109,7.870742 
	C482.024109,7.870744 482.032318,7.949064 481.900177,7.665769 
	C481.186829,7.226322 480.605621,7.070169 480.024414,6.914016 
	C480.024414,6.914014 480.196655,6.935302 480.171936,6.500789 
	C477.098175,4.377517 474.049072,2.688757 471.000000,0.999999 
	C480.925232,1.000000 490.850494,1.000000 501.000000,1.000000 
	C501.000000,10.353035 501.000000,19.707859 500.643585,29.705524 
	C498.212921,26.865192 496.138702,23.382017 494.064484,19.898838 
	C494.064484,19.898832 494.031708,19.966621 494.007446,19.693401 
	C493.656647,18.955263 493.330170,18.490347 493.003662,18.025423 
z"/>
<path fill="#1756CE" opacity="1.000000" stroke="none" 
	d="
M7.931286,461.714478 
	C6.264597,457.348602 4.598858,452.583618 2.924079,447.821777 
	C2.561787,446.791687 2.166988,445.773102 1.393579,444.874603 
	C1.000000,435.645782 1.000000,426.291534 1.000000,416.468658 
	C4.567690,416.211975 3.982145,418.866943 3.971081,421.126038 
	C3.941946,427.075043 3.317704,433.082733 3.947930,438.957916 
	C4.753397,446.466736 6.556085,453.868530 7.931286,461.714478 
z"/>
<path fill="#1756CE" opacity="1.000000" stroke="none" 
	d="
M0.999999,253.468658 
	C1.979187,253.877670 3.799980,254.747360 3.808374,255.634216 
	C3.900016,265.316895 3.750453,275.003296 3.509991,284.684814 
	C3.491653,285.423126 2.284004,286.131897 1.314589,286.927185 
	C1.000000,275.979095 1.000000,264.958221 0.999999,253.468658 
z"/>
<path fill="#1756CE" opacity="1.000000" stroke="none" 
	d="
M0.999999,132.468658 
	C1.832612,132.583481 3.375275,133.149353 3.390249,133.753113 
	C3.583442,141.542633 3.600417,149.338058 3.505597,157.130081 
	C3.498521,157.711502 2.296594,158.278381 1.325061,158.926010 
	C1.000000,150.312439 1.000000,141.624863 0.999999,132.468658 
z"/>
<path fill="#1756CE" opacity="1.000000" stroke="none" 
	d="
M0.999999,319.468262 
	C1.978938,319.856232 3.750374,320.666046 3.803751,321.576538 
	C4.078857,326.269165 4.008021,330.991669 3.804215,335.692810 
	C3.771963,336.436737 2.445990,337.124573 1.359083,337.919189 
	C1.000000,331.978851 1.000000,325.957703 0.999999,319.468262 
z"/>
<path fill="#1854C9" opacity="1.000000" stroke="none" 
	d="
M19.237520,10.896418 
	C22.597166,8.290560 26.277128,5.583311 30.069035,3.043175 
	C31.122551,2.337442 32.507889,2.127053 33.870499,1.344705 
	C36.041668,1.000000 38.083332,1.000000 40.562500,1.000000 
	C33.866711,4.286055 26.733421,7.572111 19.237520,10.896418 
z"/>
<path fill="#1756CE" opacity="1.000000" stroke="none" 
	d="
M1.000000,162.467606 
	C4.748310,166.020203 5.185550,176.045486 1.367140,178.917999 
	C1.000000,173.645065 1.000000,168.290146 1.000000,162.467606 
z"/>
<path fill="#1854C9" opacity="1.000000" stroke="none" 
	d="
M501.000000,457.533875 
	C498.864746,460.878784 496.729492,463.757538 494.295227,466.810181 
	C495.019409,464.083038 496.223907,461.231049 497.024536,458.269806 
	C498.332916,453.430573 499.378235,448.520172 500.767273,443.319885 
	C501.000000,447.689240 501.000000,452.378510 501.000000,457.533875 
z"/>
<path fill="#1756CE" opacity="1.000000" stroke="none" 
	d="
M1.000001,386.464661 
	C1.485134,386.101318 2.105074,386.045868 2.434067,386.328796 
	C5.061780,388.588440 4.605041,397.348450 1.387578,399.910645 
	C1.000000,395.643097 1.000000,391.286194 1.000001,386.464661 
z"/>
<path fill="#1756CE" opacity="1.000000" stroke="none" 
	d="
M1.000001,235.464630 
	C1.487421,235.080917 2.141546,234.987915 2.436023,235.270157 
	C4.897145,237.629028 4.423623,246.525024 1.384110,248.911560 
	C1.000000,244.643097 1.000000,240.286194 1.000001,235.464630 
z"/>
<path fill="#1756CE" opacity="1.000000" stroke="none" 
	d="
M1.000000,183.463181 
	C4.955978,184.913940 5.422189,192.639008 1.386896,195.910828 
	C1.000000,191.975449 1.000000,187.950912 1.000000,183.463181 
z"/>
<path fill="#1854C9" opacity="1.000000" stroke="none" 
	d="
M494.063538,20.283085 
	C496.138702,23.382017 498.212921,26.865192 500.643585,30.174183 
	C501.000000,32.041668 501.000000,34.083332 501.000000,36.562500 
	C498.687531,31.555777 496.375092,26.111553 494.063538,20.283085 
z"/>
<path fill="#1854C9" opacity="1.000000" stroke="none" 
	d="
M5.872759,28.026871 
	C6.084847,27.739950 6.296936,27.453028 6.717319,26.997925 
	C6.469816,29.184948 5.963243,31.531723 5.570322,33.897373 
	C5.005072,37.300560 4.522516,40.717484 3.626709,44.567398 
	C2.499169,45.004166 1.749585,45.002083 1.000000,45.000000 
	C1.000000,43.933331 1.000000,42.866661 1.391120,41.502556 
	C2.548538,37.810402 3.314836,34.415684 4.081133,31.020962 
	C4.081133,31.020962 4.036563,31.067205 4.377396,31.004810 
	C5.103071,29.970568 5.487915,28.998720 5.872759,28.026871 
z"/>
<path fill="#1756CE" opacity="1.000000" stroke="none" 
	d="
M1.000000,200.458069 
	C4.528340,201.559280 4.914417,208.285538 1.311535,210.927567 
	C1.000000,207.638718 1.000000,204.277420 1.000000,200.458069 
z"/>
<path fill="#1756CE" opacity="1.000000" stroke="none" 
	d="
M1.000000,114.458069 
	C4.662332,117.320221 4.935730,121.818977 1.326575,124.873779 
	C1.000000,121.638710 1.000000,118.277428 1.000000,114.458069 
z"/>
<path fill="#1854C9" opacity="1.000000" stroke="none" 
	d="
M33.444168,486.000000 
	C30.368742,484.228424 27.737474,482.456848 24.909960,480.387360 
	C29.957390,481.908752 35.201065,483.728058 40.722370,485.773682 
	C38.629444,486.000000 36.258884,486.000000 33.444168,486.000000 
z"/>
<path fill="#1756CE" opacity="1.000000" stroke="none" 
	d="
M1.000000,360.454102 
	C4.086228,361.388885 4.522473,367.509125 1.350830,369.921936 
	C1.000000,366.969391 1.000000,363.938812 1.000000,360.454102 
z"/>
<path fill="#1854C9" opacity="1.000000" stroke="none" 
	d="
M470.571533,0.999999 
	C474.049072,2.688757 477.098175,4.377517 480.184631,6.414952 
	C475.329285,4.998823 470.436493,3.234017 465.271851,1.234606 
	C466.714355,1.000000 468.428711,1.000000 470.571533,0.999999 
z"/>
<path fill="#1756CE" opacity="1.000000" stroke="none" 
	d="
M1.000000,98.449982 
	C4.175494,99.592377 4.570930,104.495773 1.356448,106.919952 
	C1.000000,104.299988 1.000000,101.599968 1.000000,98.449982 
z"/>
<path fill="#1756CE" opacity="1.000000" stroke="none" 
	d="
M1.000000,80.454109 
	C4.731378,81.748016 4.846098,83.909111 1.251514,89.738052 
	C1.000000,86.969406 1.000000,83.938812 1.000000,80.454109 
z"/>
<path fill="#1756CE" opacity="1.000000" stroke="none" 
	d="
M1.000000,302.444153 
	C4.735096,303.623291 5.025313,307.171906 1.321121,309.926453 
	C1.000000,307.629425 1.000000,305.258881 1.000000,302.444153 
z"/>
<path fill="#1756CE" opacity="1.000000" stroke="none" 
	d="
M1.000000,59.437500 
	C4.916161,60.855762 5.148174,62.980610 1.372868,65.914841 
	C1.000000,63.958332 1.000000,61.916668 1.000000,59.437500 
z"/>
<path fill="#1756CE" opacity="1.000000" stroke="none" 
	d="
M1.000000,351.437500 
	C4.837953,352.646576 5.050026,355.067932 1.300201,357.927551 
	C1.000000,355.958344 1.000000,353.916656 1.000000,351.437500 
z"/>
<path fill="#1756CE" opacity="1.000000" stroke="none" 
	d="
M1.000000,408.428467 
	C4.876603,409.823944 5.038014,411.103058 1.368153,413.917450 
	C1.000000,412.285645 1.000000,410.571289 1.000000,408.428467 
z"/>
<path fill="#1756CE" opacity="1.000000" stroke="none" 
	d="
M1.000000,224.428467 
	C4.872543,225.822464 5.034207,227.104782 1.367662,229.916290 
	C1.000000,228.285645 1.000000,226.571289 1.000000,224.428467 
z"/>
<path fill="#1756CE" opacity="1.000000" stroke="none" 
	d="
M1.000000,45.416664 
	C1.749585,45.002083 2.499169,45.004166 3.623597,45.003506 
	C3.014205,46.651253 6.041210,50.236050 1.252068,50.086639 
	C1.000000,48.611111 1.000000,47.222221 1.000000,45.416664 
z"/>
<path fill="#1756CE" opacity="1.000000" stroke="none" 
	d="
M1.000000,341.250000 
	C4.165900,343.004059 5.476867,345.184814 1.326484,347.927368 
	C1.000000,347.250000 1.000000,346.500000 1.264920,345.205139 
	C1.353225,343.773529 1.176611,342.886780 0.999998,342.000000 
	C1.000000,342.000000 1.000000,341.500000 1.000000,341.250000 
z"/>
<path fill="#0C1529" opacity="1.000000" stroke="none" 
	d="
M3.831017,31.267813 
	C3.314836,34.415684 2.548538,37.810402 1.391120,41.102562 
	C1.000000,40.250000 1.000000,39.500000 1.000000,38.375000 
	C1.860300,35.838223 2.720601,33.676441 3.831017,31.267813 
z"/>
<path fill="#1756CE" opacity="1.000000" stroke="none" 
	d="
M1.000000,70.416664 
	C1.955630,70.710960 2.911260,71.421928 3.866890,72.132889 
	C3.151113,73.034424 2.435336,73.935966 1.359779,74.918747 
	C1.000000,73.611107 1.000000,72.222221 1.000000,70.416664 
z"/>
<path fill="#1756CE" opacity="1.000000" stroke="none" 
	d="
M1.000000,289.416656 
	C1.955683,289.710907 2.911366,290.421783 3.867052,291.132690 
	C3.151231,292.034302 2.435405,292.935913 1.359789,293.918762 
	C1.000000,292.611115 1.000000,291.222198 1.000000,289.416656 
z"/>
<path fill="#1756CE" opacity="1.000000" stroke="none" 
	d="
M0.999997,312.399994 
	C1.922688,312.625000 2.845381,313.249969 3.768078,313.874939 
	C3.078513,314.530640 2.388944,315.186371 1.349688,315.921021 
	C1.000000,314.933319 1.000000,313.866669 0.999997,312.399994 
z"/>
<path fill="#1756CE" opacity="1.000000" stroke="none" 
	d="
M1.000000,215.375000 
	C1.883485,215.785889 2.766968,216.571762 3.650453,217.357651 
	C2.930912,217.626358 2.211370,217.895065 1.245914,218.081879 
	C1.000000,217.250000 1.000000,216.500000 1.000000,215.375000 
z"/>
<path fill="#1756CE" opacity="1.000000" stroke="none" 
	d="
M1.000005,379.399994 
	C1.822325,379.890106 2.644641,380.780212 3.466954,381.670349 
	C2.855481,382.064850 2.244013,382.459320 1.316272,382.926910 
	C1.000000,381.933319 1.000000,380.866669 1.000005,379.399994 
z"/>
<path fill="#1756CE" opacity="1.000000" stroke="none" 
	d="
M1.000000,296.375000 
	C1.856464,296.549255 2.712928,297.098541 3.569395,297.647797 
	C2.935221,298.048370 2.301045,298.448944 1.333435,298.924744 
	C1.000000,298.250000 1.000000,297.500000 1.000000,296.375000 
z"/>
<path fill="#1756CE" opacity="1.000000" stroke="none" 
	d="
M1.000002,374.333313 
	C1.730081,374.387482 2.460160,374.774963 3.190239,375.162445 
	C2.660297,375.393188 2.130353,375.623932 1.300205,375.927307 
	C1.000000,375.555542 1.000000,375.111115 1.000002,374.333313 
z"/>
<path fill="#1851BA" opacity="1.000000" stroke="none" 
	d="
M0.999998,342.375000 
	C1.176611,342.886780 1.353225,343.773529 1.264920,344.830139 
	C1.000000,344.250000 1.000000,343.500000 0.999998,342.375000 
z"/>
<path fill="#1854C9" opacity="1.000000" stroke="none" 
	d="
M501.000000,41.666668 
	C500.886230,41.446953 500.772491,40.893906 500.829376,40.170425 
	C501.000000,40.444447 501.000000,40.888889 501.000000,41.666668 
z"/>
<path fill="#F5F5F5" opacity="1.000000" stroke="none" 
	d="
M354.997345,136.989670 
	C348.608612,141.769852 342.435577,146.878067 335.780792,151.253616 
	C325.714386,157.872360 315.196411,163.801636 305.082001,170.350830 
	C292.068939,178.776886 279.267517,187.529617 266.363312,196.124207 
	C265.825012,196.482712 265.169128,196.664627 263.971710,197.194000 
	C262.426056,198.137848 261.476715,198.816483 260.527405,199.495117 
	C260.527405,199.495132 260.626862,199.537491 260.312866,199.639648 
	C256.957458,201.804581 253.916046,203.867355 250.874619,205.930115 
	C250.874619,205.930115 250.945358,205.947235 250.632095,205.991882 
	C249.493195,206.660385 248.667557,207.284256 247.841919,207.908127 
	C247.841919,207.908127 247.918442,207.914520 247.611511,207.983551 
	C246.057388,208.879715 244.810196,209.706863 243.563004,210.534012 
	C243.563004,210.534012 243.718811,210.585190 243.437378,210.629486 
	C242.694077,211.068085 242.232178,211.462402 241.770294,211.856689 
	C241.770279,211.856689 241.918579,211.876923 241.662109,211.886078 
	C241.044128,212.245529 240.682587,212.595840 240.321060,212.946136 
	C230.952438,218.926865 221.488602,224.764694 212.240417,230.926178 
	C201.793335,237.886414 191.626999,245.268341 181.172699,252.217361 
	C173.861694,257.076996 166.154984,261.340637 158.835190,266.187866 
	C148.453293,273.062897 138.315155,280.305298 127.965088,287.229584 
	C124.549591,289.514587 120.800209,291.300537 116.668610,293.680298 
	C115.423973,294.027283 114.714218,294.008636 114.004456,293.989990 
	C114.004456,293.989960 113.999084,294.000000 113.969757,293.530762 
	C113.946121,270.645050 113.694023,248.223541 114.130135,225.815430 
	C114.246025,219.860550 116.474571,213.946762 117.733124,208.014114 
	C117.818474,207.869446 117.903831,207.724792 118.244797,207.141541 
	C118.761887,206.154709 119.023361,205.606445 119.284836,205.058197 
	C119.284843,205.058197 119.134453,205.079376 119.444733,204.955078 
	C119.914429,204.197815 120.073845,203.564850 120.233261,202.931900 
	C125.625946,198.635727 131.018631,194.339554 137.003571,189.805298 
	C138.140411,189.093796 138.685028,188.620392 139.229645,188.147003 
	C139.229645,188.147003 139.069733,188.099289 139.350586,188.088989 
	C139.900146,187.786926 140.168854,187.495132 140.437561,187.203339 
	C140.437561,187.203339 140.146057,187.296402 140.496170,187.319153 
	C141.337570,186.973526 141.828857,186.605148 142.320129,186.236786 
	C142.320129,186.236771 142.156601,186.224167 142.466019,186.198608 
	C143.623108,185.529861 144.470779,184.886673 145.318451,184.243469 
	C145.318451,184.243469 145.123428,184.196091 145.411331,184.201538 
	C146.171509,183.824020 146.643784,183.441055 147.116058,183.058090 
	C147.116058,183.058090 147.045532,183.041275 147.323441,183.002808 
	C147.854797,182.682907 148.108246,182.401459 148.361710,182.120010 
	C148.361710,182.120010 148.115723,182.162079 148.449463,182.172318 
	C149.629791,181.541550 150.476379,180.900543 151.322968,180.259521 
	C151.322968,180.259521 151.164062,180.246521 151.473602,180.214539 
	C152.629715,179.541534 153.476288,178.900513 154.322861,178.259476 
	C154.322861,178.259476 154.123199,178.204437 154.416214,178.212585 
	C155.210571,177.854614 155.711929,177.488495 156.213272,177.122391 
	C156.213272,177.122391 156.074753,177.089096 156.353577,177.065887 
	C156.876648,176.730103 157.120880,176.417511 157.365112,176.104935 
	C157.365112,176.104935 157.068436,176.112137 157.389587,176.167130 
	C158.212067,175.856140 158.713425,175.490158 159.214767,175.124176 
	C159.214767,175.124176 159.071030,175.088425 159.354767,175.080444 
	C159.906799,174.786591 160.175110,174.500732 160.443420,174.214874 
	C160.443405,174.214859 160.164536,174.299301 160.501434,174.307587 
	C161.274460,173.900467 161.710602,173.485062 162.146744,173.069656 
	C162.146744,173.069656 162.030914,173.043350 162.313644,173.028229 
	C163.074722,172.678284 163.553085,172.343460 164.031448,172.008636 
	C164.369720,172.066315 164.661713,171.975372 165.288300,171.401672 
	C165.898010,170.751663 166.126846,170.435822 166.355682,170.119980 
	C166.355698,170.119980 166.101776,170.321259 166.453766,170.343094 
	C167.028610,170.093918 167.251465,169.822922 167.474319,169.551926 
	C167.474319,169.551926 167.607727,169.744568 167.924149,169.552551 
	C168.646133,169.064117 169.051712,168.767700 169.457291,168.471283 
	C169.457291,168.471283 169.289627,168.410172 169.569824,168.378723 
	C170.341385,167.983032 170.832764,167.618774 171.324142,167.254517 
	C171.324142,167.254532 171.164581,167.243301 171.491516,167.198944 
	C173.649643,165.854279 175.480820,164.553970 177.311981,163.253647 
	C177.311981,163.253647 177.160675,163.235916 177.467743,163.204697 
	C178.623947,162.535370 179.473099,161.897247 180.322235,161.259125 
	C180.322235,161.259125 180.163681,161.246994 180.473846,161.215256 
	C181.630295,160.542206 182.476593,159.900909 183.322891,159.259613 
	C183.322891,159.259598 183.163437,159.246506 183.468796,159.217621 
	C184.660706,158.618088 185.547256,158.047409 186.433807,157.476730 
	C186.433807,157.476730 186.285309,157.421036 186.564667,157.373810 
	C187.305923,156.932175 187.767822,156.537750 188.229736,156.143311 
	C188.229736,156.143311 188.067917,156.097519 188.349579,156.088196 
	C188.900330,155.787506 189.169434,155.496155 189.438538,155.204803 
	C189.438522,155.204788 189.260590,155.373581 189.526337,155.366638 
	C189.792099,155.359711 190.000458,155.024414 190.285645,154.979858 
	C191.184280,154.476852 191.797729,154.018387 192.411179,153.559921 
	C192.411179,153.559921 192.306351,153.384735 192.604614,153.355316 
	C193.345749,152.937012 193.788620,152.548111 194.231491,152.159210 
	C194.231491,152.159210 194.084793,152.123383 194.359955,152.109772 
	C194.919403,151.833145 195.203690,151.570114 195.487961,151.307068 
	C195.487961,151.307068 195.310211,151.394852 195.675537,151.316910 
	C200.075485,148.521606 204.110077,145.804245 208.144684,143.086884 
	C208.144684,143.086884 208.072952,143.068466 208.406342,143.025620 
	C210.568497,141.710617 212.397263,140.438461 214.226028,139.166321 
	C214.226028,139.166321 214.146927,139.157944 214.452332,139.105026 
	C215.580750,138.423340 216.403778,137.794571 217.226807,137.165802 
	C217.226807,137.165802 217.116745,137.152710 217.397614,137.119553 
	C218.123032,136.725586 218.567566,136.364792 219.345459,135.941956 
	C221.495087,134.609421 223.311371,133.338913 225.127655,132.068405 
	C225.127655,132.068405 225.057755,132.049591 225.388580,131.982056 
	C228.288940,130.231674 230.858475,128.548828 233.428024,126.865967 
	C233.428024,126.865967 233.696518,126.879539 233.968506,126.619888 
	C234.646042,126.064003 235.051590,125.767769 235.457138,125.471535 
	C235.457138,125.471535 235.321228,125.425034 235.562134,125.390747 
	C236.018661,125.078621 236.234283,124.800789 236.449890,124.522964 
	C236.449905,124.522972 236.611343,124.742592 236.942627,124.537003 
	C237.738571,123.903656 238.203232,123.475899 238.667908,123.048141 
	C243.249008,120.258614 247.938156,117.629662 252.383636,114.638565 
	C257.839172,110.967880 263.006653,106.869263 268.459717,103.194626 
	C272.303009,100.604759 276.414551,98.412971 281.000061,95.802567 
	C282.139038,95.090080 282.684265,94.618484 283.229462,94.146881 
	C283.229462,94.146873 283.069611,94.099274 283.350525,94.088982 
	C283.900116,93.786934 284.168854,93.495186 284.437592,93.203430 
	C284.437592,93.203438 284.150818,93.296021 284.497101,93.311386 
	C285.305511,92.932251 285.767639,92.537758 286.229767,92.143265 
	C286.229767,92.143265 286.088257,92.131653 286.400757,92.110046 
	C287.581238,91.473450 288.449249,90.858467 289.317230,90.243484 
	C289.317230,90.243484 289.158203,90.228615 289.466614,90.201096 
	C290.624268,89.535599 291.473511,88.897614 292.322754,88.259636 
	C292.322754,88.259644 292.164093,88.246758 292.473724,88.214767 
	C293.629852,87.541702 294.476379,86.900627 295.322876,86.259544 
	C295.322876,86.259544 295.126709,86.208214 295.416382,86.211212 
	C296.181305,85.830391 296.656555,85.446587 297.131775,85.062775 
	C297.131775,85.062775 297.035278,85.040314 297.312683,85.005211 
	C297.846497,84.684624 298.102875,84.399139 298.359253,84.113655 
	C298.359253,84.113655 298.072723,84.120857 298.389404,84.167480 
	C299.185364,83.832512 299.664612,83.450920 300.143890,83.069336 
	C300.143890,83.069336 300.036011,83.042030 300.317383,83.023201 
	C300.872955,82.741745 301.147125,82.479118 301.421295,82.216484 
	C301.421295,82.216476 301.298920,82.401947 301.556763,82.369598 
	C301.814575,82.337257 302.009094,82.023735 302.009094,82.023735 
	C312.131805,75.361534 322.254486,68.699326 332.981445,61.815155 
	C334.134247,61.115932 334.682861,60.638683 335.231476,60.161438 
	C335.231476,60.161442 335.085999,60.124466 335.360687,60.110233 
	C335.919495,59.832737 336.203613,59.569473 336.487701,59.306206 
	C336.487701,59.306202 336.263092,59.368336 336.583679,59.348419 
	C337.346710,58.938736 337.789124,58.548962 338.231537,58.159184 
	C338.231537,58.159180 338.075775,58.130077 338.370117,58.123627 
	C339.149780,57.767105 339.635162,57.417034 340.120514,57.066963 
	C340.120514,57.066967 340.050415,57.048767 340.319702,57.005630 
	C340.818634,56.669292 341.048248,56.376087 341.277863,56.082886 
	C341.277863,56.082886 341.087372,56.101921 341.439575,56.092239 
	C344.264954,54.437756 346.738129,52.792950 349.211273,51.148140 
	C349.211273,51.148140 349.135468,51.135353 349.491089,51.072029 
	C354.161682,48.278938 358.644440,46.454578 363.829132,48.416893 
	C363.829132,48.416893 363.930054,48.157394 363.908813,48.397709 
	C364.241516,48.826908 364.595459,49.015797 364.949432,49.204681 
	C364.953247,49.528660 365.093353,49.775208 365.724335,50.342678 
	C367.085510,53.338505 368.727600,55.871616 368.998138,58.543613 
	C371.185577,80.146225 373.324738,101.785652 365.798767,122.917732 
	C365.798767,122.917732 365.895569,122.907669 365.620331,123.070038 
	C364.804749,124.460518 364.264374,125.688622 363.723999,126.916725 
	C363.723999,126.916725 363.861633,126.912865 363.582825,127.013702 
	C362.823547,128.053925 362.343109,128.993332 361.862671,129.932724 
	C361.862671,129.932724 361.938629,129.930374 361.666779,130.044830 
	C361.073792,130.688828 360.752655,131.218384 360.431519,131.747925 
	C360.431519,131.747925 360.602478,131.680862 360.326477,131.809814 
	C359.254059,132.877457 358.457642,133.816162 357.661194,134.754852 
	C357.661194,134.754852 357.855011,134.838379 357.585815,134.852982 
	C357.092865,135.223022 356.869110,135.578476 356.645325,135.933929 
	C356.645355,135.933929 356.944000,135.926605 356.627563,135.876740 
	C356.052979,136.151352 355.794830,136.475800 355.536682,136.800262 
	C355.536682,136.800262 355.688232,136.628098 355.438354,136.651825 
	C355.188477,136.675552 354.997345,136.989670 354.997345,136.989670 
z"/>
<path fill="#F4F4F5" opacity="1.000000" stroke="none" 
	d="
M348.931732,261.873444 
	C340.601898,272.185699 328.882294,277.976501 318.106018,285.036621 
	C313.229462,288.231506 308.480133,291.620605 303.052734,294.993286 
	C302.168762,295.312622 301.905212,295.560242 301.641693,295.807861 
	C301.641693,295.807861 301.851105,295.802979 301.534210,295.810272 
	C300.370850,296.458862 299.524353,297.100128 298.677856,297.741394 
	C298.677856,297.741394 298.837036,297.755371 298.529694,297.790588 
	C297.375610,298.469696 296.528900,299.113647 295.682159,299.757568 
	C295.682159,299.757568 295.841736,299.771362 295.531189,299.795227 
	C294.373047,300.459839 293.525482,301.100586 292.677917,301.741333 
	C292.677917,301.741333 292.836365,301.752319 292.524414,301.781189 
	C291.367462,302.453705 290.522461,303.097321 289.677460,303.740936 
	C289.677460,303.740936 289.876709,303.799713 289.586121,303.792542 
	C288.792633,304.149475 288.289734,304.513580 287.786865,304.877716 
	C287.786865,304.877716 287.928467,304.912262 287.644653,304.920410 
	C287.092712,305.213654 286.824615,305.498810 286.556488,305.783936 
	C286.556488,305.783936 286.727661,305.625977 286.387360,305.693604 
	C285.620026,306.144653 285.192993,306.528137 284.537109,306.924561 
	C283.994568,307.011078 283.746979,307.180939 283.565521,307.447113 
	C283.565521,307.447113 283.639099,307.513153 283.369263,307.593811 
	C282.655884,308.063385 282.212280,308.452271 281.768707,308.841187 
	C281.768707,308.841187 281.915466,308.877045 281.640198,308.890747 
	C281.081024,309.168060 280.797150,309.431671 280.513275,309.695282 
	C280.513275,309.695282 280.693726,309.605560 280.339325,309.668274 
	C278.577332,310.763977 277.169769,311.796967 275.762177,312.829956 
	C275.762177,312.829956 275.890808,312.836823 275.547546,312.872437 
	C272.754395,314.575989 270.304443,316.243958 267.854553,317.911926 
	C267.854553,317.911957 267.926453,317.930084 267.608093,317.969055 
	C265.960236,318.993927 264.630737,319.979797 263.301270,320.965637 
	C256.823303,325.020874 250.318924,329.034698 243.874664,333.142792 
	C237.097443,337.463104 230.374847,341.869202 223.633575,346.245850 
	C216.822083,350.668091 209.913361,354.950745 203.242935,359.576752 
	C198.182327,363.086334 193.257645,366.839935 188.592758,370.856873 
	C184.872940,374.059998 181.636429,377.824432 177.977448,381.850708 
	C177.769516,382.361725 177.626007,382.791321 177.626007,382.791321 
	C177.626007,382.791321 177.841187,382.865997 177.594543,382.882446 
	C177.182007,383.261017 177.016098,383.623138 176.850189,383.985260 
	C176.850204,383.985260 176.951340,383.962189 176.645660,384.102051 
	C173.159637,391.800232 169.979279,399.358612 166.798920,406.916962 
	C166.798904,406.916962 166.895065,406.907593 166.619720,407.071320 
	C165.879776,408.486176 165.415192,409.737274 164.950607,410.988403 
	C164.950607,410.988403 165.008484,410.983673 164.760345,411.148682 
	C164.258484,411.850037 164.004761,412.386353 163.751038,412.922668 
	C160.959671,417.989014 157.405838,422.280640 151.567917,423.859558 
	C150.485641,424.152313 149.103714,423.337067 147.753220,422.311035 
	C147.634613,392.401611 147.622879,363.214325 147.747879,333.697632 
	C147.836823,332.898407 147.789001,332.428619 147.811676,331.541656 
	C148.369110,328.086151 148.856094,325.047852 149.343079,322.009552 
	C149.343079,322.009552 149.130417,322.092346 149.421448,322.009521 
	C149.837036,321.330322 149.961578,320.733978 150.086136,320.137634 
	C154.723160,310.187347 162.902710,304.105591 172.233551,298.902863 
	C178.284607,295.528931 183.564972,290.802795 189.399261,287.002838 
	C197.319565,281.844208 205.541565,277.147552 213.440903,271.958527 
	C219.688049,267.854797 225.494888,263.077820 231.764801,259.012421 
	C240.734085,253.196777 250.014145,247.862152 259.027618,242.112228 
	C263.372101,239.340759 267.286194,235.896545 271.619354,233.104935 
	C276.999908,229.638596 282.755341,226.748856 288.094604,223.224838 
	C298.593506,216.295425 308.843414,208.988953 319.337830,202.052582 
	C326.689911,197.193115 334.206726,192.571320 341.778870,188.059662 
	C348.910645,183.810333 353.340759,185.203415 356.835510,193.168732 
	C357.192413,206.744995 357.319427,219.537720 357.706024,232.322632 
	C358.005096,242.214310 355.647095,251.307602 350.433777,259.688416 
	C350.433777,259.688416 350.686615,259.864777 350.463318,259.843262 
	C350.077698,260.212738 349.915344,260.603729 349.752960,260.994720 
	C349.752960,260.994720 349.917999,260.938995 349.661743,260.970947 
	C349.247559,261.293060 349.089661,261.583252 348.931732,261.873444 
z"/>
<path fill="#0E40B2" opacity="1.000000" stroke="none" 
	d="
M117.417709,208.133942 
	C116.474571,213.946762 114.246025,219.860550 114.130135,225.815430 
	C113.694023,248.223541 113.946121,270.645050 113.974358,293.528931 
	C113.335472,292.479095 112.086464,290.965454 112.076920,289.444061 
	C111.948479,268.973969 111.627617,248.492477 112.202751,228.037674 
	C112.390541,221.359100 111.805962,213.918320 117.417709,208.133942 
z"/>
<path fill="#0228A9" opacity="1.000000" stroke="none" 
	d="
M149.033478,322.241852 
	C148.856094,325.047852 148.369110,328.086151 147.641281,331.709290 
	C147.470657,332.871796 147.540894,333.449432 147.611130,334.027069 
	C147.622879,363.214325 147.634613,392.401611 147.563522,422.009705 
	C146.991119,421.708801 146.074982,420.988007 146.073456,420.265228 
	C146.011200,390.975372 145.946381,361.684723 146.159027,332.396179 
	C146.183090,329.082794 147.829681,325.781219 149.033478,322.241852 
z"/>
<path fill="#0A33AF" opacity="1.000000" stroke="none" 
	d="
M366.130249,122.775620 
	C373.324738,101.785652 371.185577,80.146225 368.998138,58.543613 
	C368.727600,55.871616 367.085510,53.338505 365.938293,50.396637 
	C367.187195,51.929367 369.347290,53.633915 369.814026,55.717751 
	C370.965424,60.858482 372.002228,66.186264 371.899323,71.415527 
	C371.619202,85.649605 370.901245,99.883644 369.928680,114.088387 
	C369.729126,117.002228 367.665894,119.788452 366.130249,122.775620 
z"/>
<path fill="#072EAC" opacity="1.000000" stroke="none" 
	d="
M350.798218,259.620636 
	C355.647095,251.307602 358.005096,242.214310 357.706024,232.322632 
	C357.319427,219.537720 357.192413,206.744995 357.006592,193.489288 
	C357.711792,195.165222 358.898743,197.300110 358.928436,199.450958 
	C359.106873,212.368881 359.325073,225.300400 358.906891,238.207153 
	C358.654907,245.984253 356.753571,253.532974 350.798218,259.620636 
z"/>
<path fill="#0A33AF" opacity="1.000000" stroke="none" 
	d="
M167.128159,406.774139 
	C169.979279,399.358612 173.159637,391.800232 176.632294,384.051941 
	C173.768860,391.451752 170.613129,399.041534 167.128159,406.774139 
z"/>
<path fill="#0F3AB1" opacity="1.000000" stroke="none" 
	d="
M363.693054,48.045967 
	C358.644440,46.454578 354.161682,48.278938 349.490601,51.110451 
	C352.093109,46.251205 358.888824,44.584538 363.693054,48.045967 
z"/>
<path fill="#0F3AB1" opacity="1.000000" stroke="none" 
	d="
M207.769058,143.078217 
	C204.110077,145.804245 200.075485,148.521606 195.730225,151.399597 
	C199.410858,148.729996 203.402145,145.899780 207.769058,143.078217 
z"/>
<path fill="#0A33AF" opacity="1.000000" stroke="none" 
	d="
M251.248596,205.934082 
	C253.916046,203.867355 256.957458,201.804581 260.316284,199.585709 
	C257.630035,201.599075 254.626297,203.768555 251.248596,205.934082 
z"/>
<path fill="#0A33AF" opacity="1.000000" stroke="none" 
	d="
M233.090012,126.705200 
	C230.858475,128.548828 228.288940,130.231674 225.390274,132.018219 
	C227.624771,130.262741 230.188385,128.403580 233.090012,126.705200 
z"/>
<path fill="#0F3AB1" opacity="1.000000" stroke="none" 
	d="
M268.233521,317.931152 
	C270.304443,316.243958 272.754395,314.575989 275.545044,312.808044 
	C273.461334,314.455536 271.036926,316.202972 268.233521,317.931152 
z"/>
<path fill="#0F3AB1" opacity="1.000000" stroke="none" 
	d="
M348.834259,51.124535 
	C346.738129,52.792950 344.264954,54.437756 341.453186,56.186989 
	C343.562103,54.561249 346.009674,52.831089 348.834259,51.124535 
z"/>
<path fill="#0A33AF" opacity="1.000000" stroke="none" 
	d="
M224.761475,132.065826 
	C223.311371,133.338913 221.495087,134.609421 219.121338,135.931549 
	C218.563889,135.983170 218.115250,135.977646 218.115250,135.977646 
	C220.208603,134.672836 222.301956,133.368042 224.761475,132.065826 
z"/>
<path fill="#0A33AF" opacity="1.000000" stroke="none" 
	d="
M176.925720,163.190338 
	C175.480820,164.553970 173.649643,165.854279 171.494843,167.278854 
	C172.960617,165.977753 174.750031,164.552399 176.925720,163.190338 
z"/>
<path fill="#0F3AB1" opacity="1.000000" stroke="none" 
	d="
M213.848389,139.131683 
	C212.397263,140.438461 210.568497,141.710617 208.408127,143.062607 
	C209.874603,141.793991 211.672684,140.445526 213.848389,139.131683 
z"/>
<path fill="#0F3AB1" opacity="1.000000" stroke="none" 
	d="
M263.580872,321.005798 
	C264.630737,319.979797 265.960236,318.993927 267.606079,317.932068 
	C266.568451,318.919342 265.214478,319.982635 263.580872,321.005798 
z"/>
<path fill="#0F3AB1" opacity="1.000000" stroke="none" 
	d="
M276.130127,312.836304 
	C277.169769,311.796967 278.577332,310.763977 280.283813,309.584198 
	C279.221130,310.572510 277.859589,311.707611 276.130127,312.836304 
z"/>
<path fill="#0A33AF" opacity="1.000000" stroke="none" 
	d="
M243.937653,210.610809 
	C244.810196,209.706863 246.057388,208.879715 247.611053,207.945160 
	C246.715805,208.787704 245.514053,209.737656 243.937653,210.610809 
z"/>
<path fill="#0A33AF" opacity="1.000000" stroke="none" 
	d="
M358.037781,134.759766 
	C358.457642,133.816162 359.254059,132.877457 360.279633,131.730804 
	C359.810638,132.603485 359.112488,133.684082 358.037781,134.759766 
z"/>
<path fill="#0A33AF" opacity="1.000000" stroke="none" 
	d="
M260.865356,199.574951 
	C261.476715,198.816483 262.426056,198.137848 263.660095,197.389740 
	C263.030975,198.098450 262.117126,198.876617 260.865356,199.574951 
z"/>
<path fill="#0E40B2" opacity="1.000000" stroke="none" 
	d="
M114.085022,294.253723 
	C114.714218,294.008636 115.423973,294.027283 116.491791,293.978149 
	C115.955093,294.112732 115.060341,294.315094 114.085022,294.253723 
z"/>
<path fill="#0A33AF" opacity="1.000000" stroke="none" 
	d="
M165.258759,410.816406 
	C165.415192,409.737274 165.879776,408.486176 166.610779,407.023865 
	C166.440430,408.089935 166.003662,409.367188 165.258759,410.816406 
z"/>
<path fill="#1854C9" opacity="1.000000" stroke="none" 
	d="
M482.177917,8.164539 
	C482.990082,8.337463 483.956024,8.804187 485.023987,9.601486 
	C484.194550,9.440821 483.263153,8.949580 482.177917,8.164539 
z"/>
<path fill="#0F3AB1" opacity="1.000000" stroke="none" 
	d="
M216.859543,137.138214 
	C216.403778,137.794571 215.580750,138.423340 214.454819,139.144714 
	C214.932037,138.528427 215.712158,137.819534 216.859543,137.138214 
z"/>
<path fill="#1756CE" opacity="1.000000" stroke="none" 
	d="
M12.945504,469.779663 
	C12.295385,469.321655 11.629108,468.499542 10.848589,467.376221 
	C11.466013,467.855164 12.197680,468.635376 12.945504,469.779663 
z"/>
<path fill="#1854C9" opacity="1.000000" stroke="none" 
	d="
M11.162793,19.878878 
	C11.379925,19.085720 11.932144,18.222809 12.745138,17.189169 
	C12.503236,17.948668 12.000559,18.878897 11.162793,19.878878 
z"/>
<path fill="#0A33AF" opacity="1.000000" stroke="none" 
	d="
M362.212219,129.862762 
	C362.343109,128.993332 362.823547,128.053925 363.575867,126.945221 
	C363.419098,127.781532 362.990417,128.787170 362.212219,129.862762 
z"/>
<path fill="#0A33AF" opacity="1.000000" stroke="none" 
	d="
M248.199921,207.920807 
	C248.667557,207.284256 249.493195,206.660385 250.627899,205.955719 
	C250.143967,206.561111 249.350937,207.247284 248.199921,207.920807 
z"/>
<path fill="#0A33AF" opacity="1.000000" stroke="none" 
	d="
M364.060303,126.776382 
	C364.264374,125.688622 364.804749,124.460518 365.611053,123.022293 
	C365.383545,124.086792 364.890076,125.361412 364.060303,126.776382 
z"/>
<path fill="#0A33AF" opacity="1.000000" stroke="none" 
	d="
M186.071930,157.399445 
	C185.547256,158.047409 184.660706,158.618088 183.471252,159.297577 
	C184.015610,158.711670 184.862839,158.016922 186.071930,157.399445 
z"/>
<path fill="#0A33AF" opacity="1.000000" stroke="none" 
	d="
M182.964600,159.232361 
	C182.476593,159.900909 181.630295,160.542206 180.476776,161.294708 
	C180.981812,160.672318 181.794052,159.938705 182.964600,159.232361 
z"/>
<path fill="#0A33AF" opacity="1.000000" stroke="none" 
	d="
M288.963562,90.226166 
	C288.449249,90.858467 287.581238,91.473450 286.399780,92.181046 
	C286.927521,91.585381 287.768707,90.897118 288.963562,90.226166 
z"/>
<path fill="#0A33AF" opacity="1.000000" stroke="none" 
	d="
M179.964630,161.231812 
	C179.473099,161.897247 178.623947,162.535370 177.467621,163.280853 
	C177.975967,162.660339 178.791504,161.932434 179.964630,161.231812 
z"/>
<path fill="#0A33AF" opacity="1.000000" stroke="none" 
	d="
M291.965210,88.232346 
	C291.473511,88.897614 290.624268,89.535599 289.467712,90.280945 
	C289.976105,89.660545 290.791870,88.932800 291.965210,88.232346 
z"/>
<path fill="#0A33AF" opacity="1.000000" stroke="none" 
	d="
M294.964691,86.232452 
	C294.476379,86.900627 293.629852,87.541702 292.476318,88.294327 
	C292.981659,87.672363 293.794067,86.938866 294.964691,86.232452 
z"/>
<path fill="#0A33AF" opacity="1.000000" stroke="none" 
	d="
M153.964691,178.232483 
	C153.476288,178.900513 152.629715,179.541534 151.476120,180.294220 
	C151.981567,179.672409 152.794037,178.938950 153.964691,178.232483 
z"/>
<path fill="#0A33AF" opacity="1.000000" stroke="none" 
	d="
M150.964798,180.232544 
	C150.476379,180.900543 149.629791,181.541550 148.476135,182.294189 
	C148.981598,181.672409 149.794113,180.938980 150.964798,180.232544 
z"/>
<path fill="#0A33AF" opacity="1.000000" stroke="none" 
	d="
M144.960602,184.227631 
	C144.470779,184.886673 143.623108,185.529861 142.468063,186.280594 
	C142.974716,185.662689 143.788742,184.937225 144.960602,184.227631 
z"/>
<path fill="#1854C9" opacity="1.000000" stroke="none" 
	d="
M22.902122,478.946045 
	C22.395557,478.982574 21.859457,478.744110 21.155506,478.262177 
	C21.615969,478.236176 22.244278,478.453613 22.902122,478.946045 
z"/>
<path fill="#0A33AF" opacity="1.000000" stroke="none" 
	d="
M290.035919,303.768036 
	C290.522461,303.097321 291.367462,302.453705 292.520905,301.701874 
	C292.017670,302.327484 291.206024,303.061310 290.035919,303.768036 
z"/>
<path fill="#0A33AF" opacity="1.000000" stroke="none" 
	d="
M293.035583,301.768402 
	C293.525482,301.100586 294.373047,300.459839 295.529602,299.715149 
	C295.023468,300.339325 294.208374,301.067413 293.035583,301.768402 
z"/>
<path fill="#0A33AF" opacity="1.000000" stroke="none" 
	d="
M296.040405,299.772919 
	C296.528900,299.113647 297.375610,298.469696 298.527710,297.710693 
	C298.021606,298.326508 297.210144,299.057373 296.040405,299.772919 
z"/>
<path fill="#0A33AF" opacity="1.000000" stroke="none" 
	d="
M299.036072,297.768311 
	C299.524353,297.100128 300.370850,296.458862 301.524261,295.705994 
	C301.018921,296.328064 300.206635,297.061676 299.036072,297.768311 
z"/>
<path fill="#0A33AF" opacity="1.000000" stroke="none" 
	d="
M238.366760,123.075226 
	C238.203232,123.475899 237.738571,123.903656 237.062256,124.471733 
	C237.255600,124.108810 237.660599,123.605560 238.366760,123.075226 
z"/>
<path fill="#0A33AF" opacity="1.000000" stroke="none" 
	d="
M282.931641,94.157639 
	C282.684265,94.618484 282.139038,95.090080 281.324951,95.620499 
	C281.582031,95.175682 282.107941,94.672028 282.931641,94.157639 
z"/>
<path fill="#1756CE" opacity="1.000000" stroke="none" 
	d="
M19.019661,475.917236 
	C18.451872,475.711212 17.773199,475.166046 16.922741,474.343506 
	C17.470230,474.570129 18.189503,475.074097 19.019661,475.917236 
z"/>
<path fill="#1854C9" opacity="1.000000" stroke="none" 
	d="
M13.324310,16.913754 
	C13.490031,16.375336 13.963099,15.745996 14.690460,14.959650 
	C14.507056,15.476039 14.069356,16.149435 13.324310,16.913754 
z"/>
<path fill="#0228A9" opacity="1.000000" stroke="none" 
	d="
M149.859665,320.086304 
	C149.961578,320.733978 149.837036,321.330322 149.467300,322.113983 
	C149.359146,321.545837 149.496170,320.790405 149.859665,320.086304 
z"/>
<path fill="#0A33AF" opacity="1.000000" stroke="none" 
	d="
M138.931824,188.157776 
	C138.685028,188.620392 138.140411,189.093796 137.325897,189.623398 
	C137.581985,189.175919 138.107986,188.672241 138.931824,188.157776 
z"/>
<path fill="#0F3AB1" opacity="1.000000" stroke="none" 
	d="
M192.096390,153.461014 
	C191.797729,154.018387 191.184280,154.476852 190.282990,154.704559 
	C189.989349,154.290329 189.983551,154.106857 189.977737,153.923386 
	C190.579025,153.736298 191.180313,153.549194 192.096390,153.461014 
z"/>
<path fill="#0F3AB1" opacity="1.000000" stroke="none" 
	d="
M334.931915,60.169510 
	C334.682861,60.638683 334.134247,61.115932 333.312561,61.645325 
	C333.570404,61.190842 334.101379,60.684216 334.931915,60.169510 
z"/>
<path fill="#0F3AB1" opacity="1.000000" stroke="none" 
	d="
M283.886780,307.539062 
	C283.746979,307.180939 283.994568,307.011078 284.849945,306.946564 
	C285.599976,306.973938 285.808289,306.992249 286.016632,307.010590 
	C285.413757,307.217407 284.810913,307.424194 283.886780,307.539062 
z"/>
<path fill="#0E40B2" opacity="1.000000" stroke="none" 
	d="
M119.034866,205.242371 
	C119.023361,205.606445 118.761887,206.154709 118.260422,206.890076 
	C118.275253,206.526993 118.530075,205.976776 119.034866,205.242371 
z"/>
<path fill="#0A33AF" opacity="1.000000" stroke="none" 
	d="
M286.190430,306.790009 
	C285.808289,306.992249 285.599976,306.973938 285.078796,306.933594 
	C285.192993,306.528137 285.620026,306.144653 286.302368,305.613953 
	C286.493164,305.834290 286.428680,306.201874 286.190430,306.790009 
z"/>
<path fill="#0E40B2" opacity="1.000000" stroke="none" 
	d="
M119.989868,203.156250 
	C120.073845,203.564850 119.914429,204.197815 119.460068,205.029449 
	C119.358902,204.612289 119.552696,203.996445 119.989868,203.156250 
z"/>
<path fill="#0F3AB1" opacity="1.000000" stroke="none" 
	d="
M282.093140,308.808624 
	C282.212280,308.452271 282.655884,308.063385 283.376984,307.544983 
	C283.242188,307.869019 282.829865,308.322540 282.093140,308.808624 
z"/>
<path fill="#1854C9" opacity="1.000000" stroke="none" 
	d="
M493.060547,18.311089 
	C493.330170,18.490347 493.656647,18.955263 494.041870,19.708614 
	C493.772888,19.530279 493.445160,19.063511 493.060547,18.311089 
z"/>
<path fill="#1756CE" opacity="1.000000" stroke="none" 
	d="
M8.899168,463.809937 
	C8.616978,463.613281 8.294062,463.111938 7.927201,462.302612 
	C8.208319,462.498169 8.533381,463.001740 8.899168,463.809937 
z"/>
<path fill="#0A33AF" opacity="1.000000" stroke="none" 
	d="
M288.112061,304.834320 
	C288.289734,304.513580 288.792633,304.149475 289.608459,303.691071 
	C289.426697,303.994843 288.931976,304.392883 288.112061,304.834320 
z"/>
<path fill="#0A33AF" opacity="1.000000" stroke="none" 
	d="
M242.099701,211.822037 
	C242.232178,211.462402 242.694077,211.068085 243.447891,210.548157 
	C243.302902,210.877487 242.865997,211.332428 242.099701,211.822037 
z"/>
<path fill="#0A33AF" opacity="1.000000" stroke="none" 
	d="
M240.571838,212.865540 
	C240.682587,212.595840 241.044128,212.245529 241.667709,211.811462 
	C241.560715,212.080093 241.191666,212.432526 240.571838,212.865540 
z"/>
<path fill="#1756CE" opacity="1.000000" stroke="none" 
	d="
M9.928375,465.768616 
	C9.649544,465.577423 9.316413,465.088593 8.933619,464.297974 
	C9.213996,464.487793 9.544035,464.979370 9.928375,465.768616 
z"/>
<path fill="#1854C9" opacity="1.000000" stroke="none" 
	d="
M8.894184,22.018932 
	C9.122738,21.775364 9.351291,21.531797 9.792429,21.155609 
	C9.803016,21.549500 9.601016,22.076015 9.169940,22.775511 
	C8.940864,22.948492 8.895159,22.903290 8.895899,22.682199 
	C8.896640,22.461109 8.894185,22.018932 8.894184,22.018932 
z"/>
<path fill="#0F3AB1" opacity="1.000000" stroke="none" 
	d="
M339.811615,57.120186 
	C339.635162,57.417034 339.149780,57.767105 338.360138,58.202217 
	C338.538147,57.915974 339.020416,57.544693 339.811615,57.120186 
z"/>
<path fill="#0F3AB1" opacity="1.000000" stroke="none" 
	d="
M337.907227,58.191746 
	C337.789124,58.548962 337.346710,58.938736 336.626465,59.456802 
	C336.760071,59.131500 337.171478,58.677902 337.907227,58.191746 
z"/>
<path fill="#072EAC" opacity="1.000000" stroke="none" 
	d="
M349.109589,261.956268 
	C349.089661,261.583252 349.247559,261.293060 349.630981,260.889435 
	C349.666779,261.197052 349.477112,261.618073 349.109589,261.956268 
z"/>
<path fill="#0A33AF" opacity="1.000000" stroke="none" 
	d="
M169.139328,168.428253 
	C169.051712,168.767700 168.646133,169.064117 168.029358,169.500977 
	C168.152542,169.222702 168.486954,168.803970 169.139328,168.428253 
z"/>
<path fill="#0F3AB1" opacity="1.000000" stroke="none" 
	d="
M217.894745,136.145721 
	C218.115250,135.977646 218.563889,135.983170 218.787994,135.993576 
	C218.567566,136.364792 218.123032,136.725586 217.397003,137.174973 
	C217.301758,136.946960 217.488007,136.630386 217.894745,136.145721 
z"/>
<path fill="#0A33AF" opacity="1.000000" stroke="none" 
	d="
M285.900330,92.178055 
	C285.767639,92.537758 285.305511,92.932251 284.551086,93.452057 
	C284.696167,93.122528 285.133545,92.667686 285.900330,92.178055 
z"/>
<path fill="#0F3AB1" opacity="1.000000" stroke="none" 
	d="
M193.907196,152.191635 
	C193.788620,152.548111 193.345749,152.937012 192.625641,153.455215 
	C192.759888,153.131042 193.171387,152.677567 193.907196,152.191635 
z"/>
<path fill="#0A33AF" opacity="1.000000" stroke="none" 
	d="
M360.731140,131.616699 
	C360.752655,131.218384 361.073792,130.688828 361.662781,130.007050 
	C361.630676,130.398361 361.330719,130.941910 360.731140,131.616699 
z"/>
<path fill="#1854C9" opacity="1.000000" stroke="none" 
	d="
M8.052009,24.786316 
	C7.922119,24.570084 8.027419,24.170961 8.345489,23.397888 
	C8.558258,23.023937 8.895159,22.903290 8.895159,22.903290 
	C8.895159,22.903290 8.940864,22.948492 8.962574,22.971968 
	C8.751922,23.531439 8.519560,24.067432 8.052009,24.786316 
z"/>
<path fill="#0A33AF" opacity="1.000000" stroke="none" 
	d="
M187.900330,156.178009 
	C187.767822,156.537750 187.305923,156.932175 186.551971,157.452087 
	C186.696915,157.122604 187.133911,156.667648 187.900330,156.178009 
z"/>
<path fill="#0A33AF" opacity="1.000000" stroke="none" 
	d="
M235.139343,125.428314 
	C235.051590,125.767769 234.646042,126.064003 234.028839,126.499771 
	C234.151978,126.221237 234.486771,125.803169 235.139343,125.428314 
z"/>
<path fill="#0A33AF" opacity="1.000000" stroke="none" 
	d="
M170.984497,167.255127 
	C170.832764,167.618774 170.341385,167.983032 169.554199,168.466583 
	C169.720551,168.142502 170.182709,167.699127 170.984497,167.255127 
z"/>
<path fill="#0A33AF" opacity="1.000000" stroke="none" 
	d="
M163.743073,172.090164 
	C163.553085,172.343460 163.074722,172.678284 162.302094,173.086487 
	C162.490112,172.830475 162.972397,172.501083 163.743073,172.090164 
z"/>
<path fill="#0A33AF" opacity="1.000000" stroke="none" 
	d="
M161.829758,173.133606 
	C161.710602,173.485062 161.274460,173.900467 160.551895,174.444244 
	C160.681244,174.114273 161.097015,173.655914 161.829758,173.133606 
z"/>
<path fill="#0A33AF" opacity="1.000000" stroke="none" 
	d="
M163.988953,412.738464 
	C164.004761,412.386353 164.258484,411.850037 164.744812,411.124176 
	C164.727234,411.474518 164.477066,412.014404 163.988953,412.738464 
z"/>
<path fill="#0A33AF" opacity="1.000000" stroke="none" 
	d="
M158.889130,175.166336 
	C158.713425,175.490158 158.212067,175.856140 157.397095,176.315338 
	C157.576813,176.008514 158.070160,175.608505 158.889130,175.166336 
z"/>
<path fill="#0A33AF" opacity="1.000000" stroke="none" 
	d="
M155.888168,177.166229 
	C155.711929,177.488495 155.210571,177.854614 154.395905,178.314117 
	C154.576065,178.008362 155.069565,177.609222 155.888168,177.166229 
z"/>
<path fill="#0A33AF" opacity="1.000000" stroke="none" 
	d="
M296.815918,85.120308 
	C296.656555,85.446587 296.181305,85.830391 295.398071,86.310928 
	C295.560059,85.997719 296.030090,85.587776 296.815918,85.120308 
z"/>
<path fill="#0A33AF" opacity="1.000000" stroke="none" 
	d="
M146.805344,183.124481 
	C146.643784,183.441055 146.171509,183.824020 145.394653,184.300476 
	C145.558258,183.992950 146.026443,183.591919 146.805344,183.124481 
z"/>
<path fill="#0A33AF" opacity="1.000000" stroke="none" 
	d="
M141.981842,186.249298 
	C141.828857,186.605148 141.337570,186.973526 140.550308,187.462265 
	C140.717407,187.142365 141.180481,186.702103 141.981842,186.249298 
z"/>
<path fill="#1854C9" opacity="1.000000" stroke="none" 
	d="
M480.230804,7.132544 
	C480.605621,7.070169 481.186829,7.226322 481.939087,7.659836 
	C481.552521,7.741822 480.994843,7.546446 480.230804,7.132544 
z"/>
<path fill="#0A33AF" opacity="1.000000" stroke="none" 
	d="
M299.826660,83.125290 
	C299.664612,83.450920 299.185364,83.832512 298.397217,84.310585 
	C298.562012,83.998466 299.035706,83.589859 299.826660,83.125290 
z"/>
<path fill="#0A33AF" opacity="1.000000" stroke="none" 
	d="
M177.067047,383.798096 
	C177.016098,383.623138 177.182007,383.261017 177.626251,382.773071 
	C177.697693,382.968475 177.490799,383.289703 177.067047,383.798096 
z"/>
<path fill="#1854C9" opacity="1.000000" stroke="none" 
	d="
M17.120600,12.841271 
	C17.102673,12.694681 17.293777,12.399304 17.737497,12.007845 
	C17.769953,12.172004 17.549793,12.432244 17.120600,12.841271 
z"/>
<path fill="#1854C9" opacity="1.000000" stroke="none" 
	d="
M18.121279,11.841185 
	C18.102209,11.693851 18.293232,11.398101 18.736320,11.004082 
	C18.769382,11.168132 18.550377,11.430449 18.121279,11.841185 
z"/>
<path fill="#1756CE" opacity="1.000000" stroke="none" 
	d="
M3.487922,405.486969 
	C3.511141,405.477814 3.464704,405.496124 3.487922,405.486969 
z"/>
<path fill="#0A33AF" opacity="1.000000" stroke="none" 
	d="
M140.168091,187.329529 
	C140.168854,187.495132 139.900146,187.786926 139.330322,188.169937 
	C139.319031,187.992691 139.608826,187.724213 140.168091,187.329529 
z"/>
<path fill="#1756CE" opacity="1.000000" stroke="none" 
	d="
M3.510156,402.491638 
	C3.519717,402.514679 3.500596,402.468628 3.510156,402.491638 
z"/>
<path fill="#1854C9" opacity="1.000000" stroke="none" 
	d="
M487.194397,12.008738 
	C487.340149,12.001148 487.639404,12.235441 488.089233,12.714613 
	C487.942535,12.723202 487.645203,12.486912 487.194397,12.008738 
z"/>
<path fill="#1854C9" opacity="1.000000" stroke="none" 
	d="
M485.174255,10.122461 
	C485.317444,10.099163 485.628235,10.290530 486.085114,10.719342 
	C485.934784,10.750235 485.638306,10.543682 485.174255,10.122461 
z"/>
<path fill="#1854C9" opacity="1.000000" stroke="none" 
	d="
M16.008801,13.824751 
	C16.005907,13.674866 16.239117,13.391561 16.733532,13.011686 
	C16.744793,13.173856 16.494848,13.432593 16.008801,13.824751 
z"/>
<path fill="#1756CE" opacity="1.000000" stroke="none" 
	d="
M15.787338,473.033905 
	C15.639312,473.041229 15.327135,472.800385 14.851567,472.310333 
	C14.999848,472.302673 15.311519,472.544189 15.787338,473.033905 
z"/>
<path fill="#1756CE" opacity="1.000000" stroke="none" 
	d="
M3.506107,384.512817 
	C3.482864,384.521881 3.529350,384.503723 3.506107,384.512817 
z"/>
<path fill="#0A33AF" opacity="1.000000" stroke="none" 
	d="
M177.770386,382.743225 
	C177.626007,382.791321 177.769516,382.361725 177.912201,382.185791 
	C178.054871,382.009857 178.183517,382.414520 178.183517,382.414520 
	C178.183517,382.414520 177.914749,382.695160 177.770386,382.743225 
z"/>
<path fill="#1756CE" opacity="1.000000" stroke="none" 
	d="
M3.506095,371.512939 
	C3.482857,371.522034 3.529333,371.503876 3.506095,371.512939 
z"/>
<path fill="#1756CE" opacity="1.000000" stroke="none" 
	d="
M3.506017,339.512878 
	C3.482778,339.521942 3.529257,339.503815 3.506017,339.512878 
z"/>
<path fill="#1756CE" opacity="1.000000" stroke="none" 
	d="
M3.510248,90.491653 
	C3.519812,90.514694 3.500684,90.468605 3.510248,90.491653 
z"/>
<path fill="#0A33AF" opacity="1.000000" stroke="none" 
	d="
M355.122437,137.050751 
	C354.997345,136.989670 355.188477,136.675552 355.346985,136.582550 
	C355.622955,136.841721 355.536987,137.049164 355.122437,137.050751 
z"/>
<path fill="#0A33AF" opacity="1.000000" stroke="none" 
	d="
M355.809387,136.657410 
	C355.794830,136.475800 356.052979,136.151352 356.621094,135.727509 
	C356.648102,135.923615 356.365082,136.219086 355.809387,136.657410 
z"/>
<path fill="#0A33AF" opacity="1.000000" stroke="none" 
	d="
M356.894409,135.755692 
	C356.869110,135.578476 357.092865,135.223022 357.621643,134.753723 
	C357.665649,134.952408 357.404572,135.264938 356.894409,135.755692 
z"/>
<path fill="#0A33AF" opacity="1.000000" stroke="none" 
	d="
M364.770569,48.979065 
	C364.595459,49.015797 364.241516,48.826908 363.777649,48.351009 
	C363.975739,48.293812 364.283752,48.523628 364.770569,48.979065 
z"/>
<path fill="#1756CE" opacity="1.000000" stroke="none" 
	d="
M3.483958,128.508423 
	C3.474265,128.485458 3.493652,128.531372 3.483958,128.508423 
z"/>
<path fill="#0A33AF" opacity="1.000000" stroke="none" 
	d="
M236.192291,124.608620 
	C236.234283,124.800789 236.018661,125.078621 235.554962,125.462196 
	C235.516129,125.276718 235.725418,124.985497 236.192291,124.608620 
z"/>
<path fill="#1756CE" opacity="1.000000" stroke="none" 
	d="
M3.510252,110.491684 
	C3.519813,110.514732 3.500692,110.468628 3.510252,110.491684 
z"/>
<path fill="#0A33AF" opacity="1.000000" stroke="none" 
	d="
M284.168152,93.329605 
	C284.168854,93.495186 283.900116,93.786934 283.330292,94.169891 
	C283.319000,93.992661 283.608826,93.724220 284.168152,93.329605 
z"/>
<path fill="#1756CE" opacity="1.000000" stroke="none" 
	d="
M3.510244,92.491669 
	C3.519805,92.514709 3.500683,92.468620 3.510244,92.491669 
z"/>
<path fill="#0F3AB1" opacity="1.000000" stroke="none" 
	d="
M195.207764,151.399551 
	C195.203690,151.570114 194.919403,151.833145 194.346558,152.184082 
	C194.347839,152.011993 194.637695,151.752014 195.207764,151.399551 
z"/>
<path fill="#0A33AF" opacity="1.000000" stroke="none" 
	d="
M298.103577,84.241295 
	C298.102875,84.399139 297.846497,84.684624 297.303101,85.053810 
	C297.293335,84.881317 297.570618,84.625122 298.103577,84.241295 
z"/>
<path fill="#0A33AF" opacity="1.000000" stroke="none" 
	d="
M301.155457,82.322830 
	C301.147125,82.479118 300.872955,82.741745 300.305389,83.077522 
	C300.304535,82.910172 300.597076,82.669670 301.155457,82.322830 
z"/>
<path fill="#0A33AF" opacity="1.000000" stroke="none" 
	d="
M301.884216,81.961060 
	C302.009094,82.023735 301.814575,82.337257 301.652710,82.425568 
	C301.377930,82.158470 301.467407,81.953308 301.884216,81.961060 
z"/>
<path fill="#1756CE" opacity="1.000000" stroke="none" 
	d="
M3.487796,78.486755 
	C3.510993,78.477577 3.464598,78.495926 3.487796,78.486755 
z"/>
<path fill="#0F3AB1" opacity="1.000000" stroke="none" 
	d="
M336.207581,59.398960 
	C336.203613,59.569473 335.919495,59.832737 335.346802,60.183983 
	C335.347961,60.011883 335.637726,59.751797 336.207581,59.398960 
z"/>
<path fill="#1756CE" opacity="1.000000" stroke="none" 
	d="
M3.483829,57.508385 
	C3.474127,57.485455 3.493531,57.531311 3.483829,57.508385 
z"/>
<path fill="#0F3AB1" opacity="1.000000" stroke="none" 
	d="
M341.036652,56.212982 
	C341.048248,56.376087 340.818634,56.669292 340.314026,57.041397 
	C340.291168,56.861221 340.543304,56.602150 341.036652,56.212982 
z"/>
<path fill="#1756CE" opacity="1.000000" stroke="none" 
	d="
M3.483829,55.508381 
	C3.474130,55.485451 3.493529,55.531311 3.483829,55.508381 
z"/>
<path fill="#0A33AF" opacity="1.000000" stroke="none" 
	d="
M148.107727,182.241394 
	C148.108246,182.401459 147.854797,182.682907 147.316986,183.038498 
	C147.306335,182.862671 147.580048,182.612717 148.107727,182.241394 
z"/>
<path fill="#0A33AF" opacity="1.000000" stroke="none" 
	d="
M286.825928,305.667969 
	C286.824615,305.498810 287.092712,305.213654 287.658508,304.848816 
	C287.669281,305.030090 287.382355,305.291046 286.825928,305.667969 
z"/>
<path fill="#0A33AF" opacity="1.000000" stroke="none" 
	d="
M301.891357,295.742737 
	C301.905212,295.560242 302.168762,295.312622 302.711609,295.097656 
	C302.707642,295.312744 302.424347,295.495178 301.891357,295.742737 
z"/>
<path fill="#072EAC" opacity="1.000000" stroke="none" 
	d="
M349.970520,260.791016 
	C349.915344,260.603729 350.077698,260.212738 350.546509,259.713501 
	C350.631348,259.932617 350.409729,260.259949 349.970520,260.791016 
z"/>
<path fill="#1756CE" opacity="1.000000" stroke="none" 
	d="
M3.506130,250.512894 
	C3.482882,250.521973 3.529377,250.503815 3.506130,250.512894 
z"/>
<path fill="#1756CE" opacity="1.000000" stroke="none" 
	d="
M3.483947,232.508377 
	C3.474250,232.485428 3.493643,232.531326 3.483947,232.508377 
z"/>
<path fill="#1756CE" opacity="1.000000" stroke="none" 
	d="
M3.487828,222.486908 
	C3.511029,222.477737 3.464627,222.496094 3.487828,222.486908 
z"/>
<path fill="#1756CE" opacity="1.000000" stroke="none" 
	d="
M3.483894,213.508362 
	C3.474190,213.485428 3.493597,213.531296 3.483894,213.508362 
z"/>
<path fill="#1756CE" opacity="1.000000" stroke="none" 
	d="
M3.483945,197.508469 
	C3.474248,197.485519 3.493643,197.531418 3.483945,197.508469 
z"/>
<path fill="#1756CE" opacity="1.000000" stroke="none" 
	d="
M3.487813,53.486839 
	C3.511013,53.477669 3.464612,53.496010 3.487813,53.486839 
z"/>
<path fill="#0F3AB1" opacity="1.000000" stroke="none" 
	d="
M280.793274,309.602173 
	C280.797150,309.431671 281.081024,309.168060 281.653595,308.816406 
	C281.652618,308.988617 281.362946,309.248840 280.793274,309.602173 
z"/>
<path fill="#1756CE" opacity="1.000000" stroke="none" 
	d="
M3.506128,180.512939 
	C3.482880,180.522018 3.529377,180.503845 3.506128,180.512939 
z"/>
<path fill="#0A33AF" opacity="1.000000" stroke="none" 
	d="
M157.109375,176.247986 
	C157.120880,176.417511 156.876648,176.730103 156.340424,177.135895 
	C156.316833,176.949738 156.585236,176.670380 157.109375,176.247986 
z"/>
<path fill="#0A33AF" opacity="1.000000" stroke="none" 
	d="
M160.173859,174.331848 
	C160.175110,174.500732 159.906799,174.786591 159.340271,175.153076 
	C159.329468,174.972061 159.616882,174.710449 160.173859,174.331848 
z"/>
<path fill="#0A33AF" opacity="1.000000" stroke="none" 
	d="
M166.112976,170.281174 
	C166.126846,170.435822 165.898010,170.751663 165.377640,171.182495 
	C165.347504,171.012436 165.608887,170.727402 166.112976,170.281174 
z"/>
<path fill="#0A33AF" opacity="1.000000" stroke="none" 
	d="
M167.210587,169.624680 
	C167.251465,169.822922 167.028610,170.093918 166.557617,170.467438 
	C166.521927,170.279099 166.734390,169.988266 167.210587,169.624680 
z"/>
<path fill="#1756CE" opacity="1.000000" stroke="none" 
	d="
M3.483994,160.508514 
	C3.474298,160.485565 3.493690,160.531479 3.483994,160.508514 
z"/>
<path fill="#0A33AF" opacity="1.000000" stroke="none" 
	d="
M189.168793,155.330475 
	C189.169434,155.496155 188.900330,155.787506 188.330231,156.170029 
	C188.319168,155.992844 188.609100,155.724503 189.168793,155.330475 
z"/>
<path fill="#0A33AF" opacity="1.000000" stroke="none" 
	d="
M189.806824,154.159760 
	C189.983551,154.106857 189.989349,154.290329 189.997803,154.749100 
	C190.000458,155.024414 189.792099,155.359711 189.616348,155.449921 
	C189.505707,155.158798 189.570816,154.777481 189.806824,154.159760 
z"/>
<path fill="#0C1529" opacity="1.000000" stroke="none" 
	d="
M5.560274,28.127781 
	C5.487915,28.998720 5.103071,29.970568 4.409020,31.010391 
	C4.482473,30.128473 4.865131,29.178583 5.560274,28.127781 
z"/>
<path fill="#0C1529" opacity="1.000000" stroke="none" 
	d="
M8.895899,22.682199 
	C8.895159,22.903290 8.558258,23.023937 8.392768,23.091967 
	C8.318254,22.798109 8.409231,22.436222 8.697197,22.046635 
	C8.894185,22.018932 8.896640,22.461109 8.895899,22.682199 
z"/>
<path fill="#1851BA" opacity="1.000000" stroke="none" 
	d="
M147.747879,333.697632 
	C147.540894,333.449432 147.470657,332.871796 147.570801,332.126526 
	C147.789001,332.428619 147.836823,332.898407 147.747879,333.697632 
z"/>
</svg>