<svg width="500" height="485" viewBox="0 0 500 485" xmlns="http://www.w3.org/2000/svg">
  <!-- Background -->
  <rect x="0" y="0" width="500" height="485" rx="56" fill="#1E5BD8"/>

  <!-- Upper white band -->
  <path fill="#FFFFFF" d="
    M120,200
    C120,175 140,160 165,148
    L330,72
    C355,60 380,76 380,104
    L380,138
    C380,165 370,186 350,198
    L185,294
    C160,309 120,286 120,255
    Z" />

  <!-- Lower white band -->
  <path fill="#FFFFFF" d="
    M120,340
    C120,312 160,289 185,304
    L350,400
    C370,412 380,433 380,460
    L380,464
    C380,474 372,480 364,476
    L165,371
    C140,359 120,345 120,340
    Z" />
</svg>